<svg xmlns="http://www.w3.org/2000/svg">
	<defs>
		<style>
		.spriteChank { display: none }
		.spriteChank:target { display: inline }
		</style>
	</defs>

	<g id="tradingview" class="spriteChank" viewBox="0 0 185 24">
		<path d="M47.1133 18.653H50.7208V4.54802H55.4383V1.137H42.4267V4.54802H47.1133V18.653ZM55.4383 18.653H58.83V12.7529C58.83 10.694 59.8783 9.46479 61.5125 9.46479C62.0675 9.46479 62.53 9.55698 63.0542 9.74136V6.29962C62.6842 6.20743 62.2833 6.14597 61.9133 6.14597C60.5258 6.14597 59.2617 7.06786 58.83 8.26633V6.29962H55.4383V18.653ZM69.56 18.9296C71.2558 18.9296 72.5508 18.0691 73.1367 17.2702V18.653H76.5283V6.33034H73.1367V7.71319C72.5817 6.91421 71.2867 6.05378 69.56 6.05378C66.2608 6.05378 63.7325 9.00384 63.7325 12.507C63.7325 15.9795 66.2608 18.9296 69.56 18.9296ZM70.2692 15.8566C68.3883 15.8566 67.155 14.443 67.155 12.507C67.155 10.5711 68.3883 9.15749 70.2692 9.15749C72.15 9.15749 73.3833 10.5711 73.3833 12.507C73.3833 14.443 72.15 15.8566 70.2692 15.8566ZM84.5758 18.9296C86.2717 18.9296 87.5667 18.0691 88.1525 17.2702V18.653H91.5442V0.153649H88.1525V7.71319C87.5975 6.91421 86.3025 6.05378 84.5758 6.05378C81.2767 6.05378 78.7483 9.00384 78.7483 12.507C78.7792 15.9795 81.2767 18.9296 84.5758 18.9296ZM85.3158 15.8566C83.435 15.8566 82.2017 14.443 82.2017 12.507C82.2017 10.5711 83.435 9.15749 85.3158 9.15749C87.1967 9.15749 88.43 10.5711 88.43 12.507C88.43 14.443 87.1967 15.8566 85.3158 15.8566ZM96.2617 4.45583C97.4642 4.45583 98.4508 3.5032 98.4508 2.30474C98.4508 1.10627 97.4642 0.153649 96.2617 0.153649C95.09 0.153649 94.1033 1.10627 94.1033 2.30474C94.1342 3.47247 95.09 4.4251 96.2617 4.45583ZM94.5967 18.653H97.9883V6.45327H94.5967V18.653ZM100.979 18.653H104.371V12.63C104.371 10.2638 105.543 9.12676 107.115 9.12676C108.533 9.12676 109.304 10.2023 109.304 11.9846V18.653H112.696V11.4315C112.696 8.23559 110.908 6.05378 107.917 6.05378C106.313 6.05378 105.049 6.72983 104.371 7.74392V6.33034H100.979V18.653ZM121.329 15.3649C119.633 15.3649 118.184 14.0743 118.184 12.1997C118.184 10.2945 119.602 9.03457 121.329 9.03457C123.025 9.03457 124.474 10.2945 124.474 12.1997C124.474 14.105 123.056 15.3649 121.329 15.3649ZM120.928 24C124.721 24 127.588 22.064 127.588 17.6389V6.26889H124.197V7.65173C123.518 6.69911 122.192 5.99232 120.62 5.99232C117.383 5.99232 114.792 8.758 114.792 12.2305C114.792 15.6722 117.383 18.4379 120.62 18.4379C122.192 18.4379 123.549 17.7311 124.197 16.8092V17.6389C124.197 19.6056 122.871 21.0192 120.867 21.0192C119.479 21.0192 118.092 20.5583 117.012 19.4827L115.162 22.0026C116.581 23.3854 118.77 24 120.928 24ZM134.773 18.653H137.979L145.256 1.137H141.309L136.407 13.306L131.443 1.137H127.558L134.773 18.653ZM148.339 4.30218C149.542 4.30218 150.497 3.34955 150.528 2.15109C150.528 0.952625 149.542 0 148.339 0C147.168 0 146.181 0.952625 146.181 2.15109C146.181 3.34955 147.198 4.30218 148.339 4.30218ZM146.674 18.653H150.066V6.29962H146.674V18.653ZM158.822 18.9296C161.412 18.9296 163.386 17.854 164.558 16.1639L162.029 14.2894C161.474 15.1498 160.395 15.8566 158.822 15.8566C157.188 15.8566 155.739 14.9347 155.523 13.2753H164.773C164.835 12.7529 164.835 12.4149 164.835 12.1076C164.835 8.08195 161.998 6.05378 158.73 6.05378C154.968 6.05378 152.224 8.85019 152.224 12.4763C152.286 16.379 155.153 18.9296 158.822 18.9296ZM155.677 11.0013C156.017 9.49552 157.404 8.85019 158.668 8.85019C159.932 8.85019 161.166 9.52625 161.474 11.0013H155.677ZM177.569 18.653H180.93L185 6.29962H181.362L179.049 14.1972L176.521 6.29962H173.931L171.433 14.1972L169.09 6.29962H165.482L169.583 18.653H172.944L175.257 11.6466L177.569 18.653Z" fill="black"/>
        <path d="M13.69 18.653H6.845V7.95903H0V1.137H13.6592V18.653H13.69ZM27.38 18.653H19.5792L26.9175 1.137H34.7183L27.38 18.653ZM19.5483 1.137C21.7067 1.137 23.4642 2.8886 23.4642 5.03969C23.4642 7.19078 21.7067 8.94238 19.5483 8.94238C17.39 8.94238 15.6325 7.19078 15.6325 5.03969C15.6633 2.8886 17.39 1.137 19.5483 1.137Z" fill="black"/>
	</g>

    <g id="investing" class="spriteChank" viewBox="0 0 189 30">
		<path d="M126.137 7.03757V9.10747H126.043C125.102 7.41392 123.312 6.47306 121.43 6.65854C119.454 6.65854 117.57 7.41123 116.253 8.82252C114.747 10.5161 113.995 12.7768 114.089 15.0349C114.089 20.4005 116.538 23.129 121.336 23.129C123.312 23.3172 125.196 22.1881 125.949 20.3037H126.043V22.5618C126.043 25.1048 125.196 26.2338 123.124 26.2338C121.242 26.2338 120.769 25.5752 120.489 24.4462H114.653C114.653 25.9516 115.312 27.3656 116.535 28.3064C117.946 29.4355 120.113 30 123.03 30C126.135 30 128.301 29.3414 129.807 27.9301C131.218 26.707 131.877 24.7285 131.877 22V7.03757H126.135H126.137ZM126.043 16.1693V16.4516C126.043 18.051 124.726 19.3709 123.124 19.3709C121.242 19.3709 120.207 17.8655 120.207 15.0403C120.207 12.215 121.336 10.7096 123.221 10.7096C125.105 10.7096 126.046 12.0268 126.046 14.2876V16.1693H126.043Z" fill="#060606"/>
        <path d="M68.2474 24.3575C66.1775 24.5457 64.1049 23.9811 62.4114 22.8521C61.2823 21.9112 60.6237 20.5 60.5296 18.9919H65.8952C65.9893 20.1209 66.742 20.6854 68.1533 20.6854C69.4705 20.6854 70.3173 20.215 70.3173 19.2742C70.3173 18.5215 69.8469 18.1451 68.6237 17.9569L65.8926 17.5806C62.5969 17.2043 60.8092 15.3225 60.8092 12.4032C60.8092 10.8978 61.3737 9.4865 62.5028 8.44887C65.7985 6.1908 70.1264 6.09671 73.4221 8.16661C74.5512 9.10747 75.2098 10.5215 75.2098 11.9327H69.9383C69.9383 10.9919 69.0915 10.2392 68.1506 10.2392H68.0565C66.5512 10.2392 66.2689 10.8978 66.2689 11.5564C66.2689 12.215 66.5512 12.6854 67.8684 12.8736L70.7877 13.2499C72.1049 13.344 73.328 13.8145 74.2716 14.6612C75.2125 15.6021 75.6829 16.8252 75.5888 18.1451C75.777 22.0053 72.8603 24.3575 68.2474 24.3575Z" fill="#060606"/>
        <path d="M57.8925 9.10747C56.4813 7.50801 54.2205 6.65854 51.3038 6.65854C48.9517 6.47037 46.6909 7.41123 44.9974 9.01338C43.492 10.7069 42.6425 12.9677 42.7366 15.3198C42.7366 21.0618 45.8441 24.2634 51.3038 24.2634C56.4813 24.2634 59.3979 22.2876 59.777 18.8037H53.8468C53.6587 19.8387 52.6237 20.5914 51.4947 20.4032C49.7071 20.4032 48.9517 19.2741 48.7635 16.8252H59.9651V15.508C60.0592 13.2499 59.3065 10.8951 57.8952 9.10747H57.8925ZM53.8442 13.6263H48.7608C48.949 11.3682 49.7017 10.2365 51.3011 10.2365C52.8065 10.2365 53.656 11.2715 53.8415 13.4381V13.6263H53.8442Z" fill="#060606"/>
        <path d="M159.274 10.1424C157.487 10.0483 155.696 10.801 154.379 12.0241C153.156 13.3413 152.498 15.2258 152.592 17.1075C152.498 18.9892 153.156 20.8736 154.379 22.2849C155.696 23.6021 157.487 24.2607 159.274 24.1666C163.323 24.1666 165.957 21.4354 165.957 17.1075C165.957 12.7795 163.417 10.1424 159.274 10.1424ZM159.274 21.5322C157.581 21.5322 156.64 20.1209 156.64 17.2016C156.64 15.2258 157.11 12.8709 159.274 12.8709C160.968 12.8709 161.911 14.3763 161.911 17.2016C161.911 20.0268 160.971 21.5322 159.274 21.5322Z" fill="#060606"/>
        <path d="M145.812 24.1693C144.024 24.2634 142.234 23.6048 140.917 22.2876C139.694 20.8763 139.129 18.9919 139.223 17.2043C139.223 12.8736 141.764 10.2392 145.906 10.2392C149.672 10.2392 151.93 12.1209 152.024 15.3225H148.164C148.07 14.1935 147.6 12.8736 145.903 12.8736C143.551 12.8736 143.269 15.6021 143.269 17.2043C143.269 20.1236 144.116 21.5349 145.903 21.5349C147.221 21.5349 148.256 20.5 148.256 19.1828V18.9005H152.022C152.022 20.4059 151.363 21.9113 150.234 22.8548C148.917 23.7957 147.315 24.172 145.809 24.172" fill="#060606"/>
        <path d="M82.5539 24.0752C81.1426 24.1693 79.6345 23.793 78.5055 22.8521C77.3764 21.7231 76.8119 20.0268 76.906 18.4274V2.42467H82.742V7.03757H86.2259V11.1801H82.8361V17.2983C82.8361 19.086 83.4007 19.7473 85.0001 19.7473C85.3765 19.7473 85.7528 19.7473 86.1291 19.6532V23.8897C84.906 23.9838 83.777 24.0779 82.5512 24.0779" fill="#060606"/>
        <path d="M175.839 23.793V15.9811C175.933 15.2284 175.745 14.4758 175.463 13.8172C175.086 13.2526 174.428 12.9704 173.769 13.0645C172.17 13.0645 171.229 14.1935 171.229 16.0752V23.793H167.274V10.5188H171.041V12.6827C171.887 11.0833 173.487 10.1424 175.183 10.2365C177.441 10.2365 178.761 11.1774 179.326 12.965H179.42C180.172 11.2715 181.866 10.1397 183.75 10.2365C186.764 10.2365 188.175 11.836 188.175 15.1317V23.793H184.221V15.9811C184.315 15.2284 184.127 14.4758 183.844 13.8172C183.468 13.2526 182.809 12.9704 182.151 13.0645C180.551 13.0645 179.608 14.1935 179.608 16.0752L179.796 23.793H175.839Z" fill="#060606"/>
        <path d="M101.664 23.793H95.6399V7.03757H101.476V9.76607H101.57C102.605 7.79026 104.772 6.56446 107.03 6.75263C109.194 6.75263 110.702 7.31715 111.643 8.44618C112.583 9.85747 113.054 11.6451 112.866 13.3413V23.7903H106.842V14.2849C106.936 13.4381 106.747 12.5913 106.371 11.8387C105.901 11.2741 105.242 10.8978 104.489 10.9919C102.702 10.9919 101.761 12.1209 101.761 14.3817L101.667 23.7957L101.664 23.793Z" fill="#060606"/>
        <path d="M14.4973 23.793H8.47313V7.03757H14.3092V9.76607H14.4032C15.4382 7.79026 17.6049 6.56446 19.8629 6.75263C22.0269 6.75263 23.535 7.31715 24.4758 8.44618C25.4167 9.85747 25.8871 11.6451 25.699 13.3413V23.7903H19.6748V14.2849C19.7688 13.4381 19.5807 12.5913 19.2043 11.8387C18.7339 11.2741 18.0753 10.8978 17.3226 10.9919C15.535 10.9919 14.5941 12.1209 14.5941 14.3817L14.5 23.7957L14.4973 23.793Z" fill="#060606"/>
        <path d="M138 19.8387H133.858V23.793H138V19.8387Z" fill="#060606"/>
        <path d="M93.6614 7.03757H87.6372V23.793H93.6614V7.03757Z" fill="#060606"/>
        <path d="M37.5592 23.793H31.3468L25.4167 7.03757H31.4409L33.6076 14.2849C34.1721 16.3548 34.6425 18.5215 34.6425 18.6155H34.7366C35.0189 17.2043 35.3011 15.793 35.6775 14.379L37.8414 7.13166H43.6775L37.5592 23.793Z" fill="#060606"/>
        <path d="M6.21237 0.0698242H0V23.7903H6.21237V0.0698242Z" fill="#060606"/>
	</g>

    <g id="applemarket" class="spriteChank" viewBox="0 0 32 32">
        <path d="M29.3893 24.9377C28.9054 26.0557 28.3326 27.0848 27.6689 28.031C26.7642 29.3208 26.0235 30.2136 25.4527 30.7094C24.5677 31.5232 23.6196 31.94 22.6043 31.9637C21.8755 31.9637 20.9965 31.7563 19.9733 31.3355C18.9468 30.9168 18.0034 30.7094 17.1408 30.7094C16.2361 30.7094 15.2659 30.9168 14.2281 31.3355C13.1887 31.7563 12.3514 31.9755 11.7112 31.9973C10.7376 32.0387 9.7672 31.6101 8.79854 30.7094C8.18029 30.1702 7.40698 29.2457 6.48059 27.9361C5.48664 26.5377 4.66948 24.916 4.0293 23.0672C3.34369 21.0702 3 19.1364 3 17.2643C3 15.1197 3.46339 13.2701 4.39156 11.7201C5.12102 10.4751 6.09146 9.49305 7.30604 8.77208C8.52062 8.05112 9.83298 7.68372 11.2463 7.66022C12.0196 7.66022 13.0337 7.89942 14.2939 8.36953C15.5505 8.84122 16.3574 9.08042 16.7112 9.08042C16.9757 9.08042 17.872 8.80072 19.3916 8.24311C20.8286 7.72599 22.0414 7.51187 23.0349 7.59622C25.7272 7.8135 27.7499 8.8748 29.095 10.7868C26.6872 12.2458 25.4961 14.2891 25.5198 16.9105C25.5415 18.9523 26.2823 20.6514 27.738 22.0005C28.3977 22.6267 29.1345 23.1106 29.9542 23.4543C29.7765 23.9698 29.5888 24.4637 29.3893 24.9377ZM23.2147 0.640182C23.2147 2.24055 22.63 3.7348 21.4646 5.11787C20.0582 6.76207 18.3572 7.71216 16.5125 7.56224C16.489 7.37025 16.4753 7.16818 16.4753 6.95584C16.4753 5.41949 17.1442 3.7753 18.3319 2.43094C18.9248 1.75027 19.679 1.1843 20.5935 0.73282C21.5061 0.288073 22.3693 0.0421187 23.1811 0C23.2048 0.213944 23.2147 0.427901 23.2147 0.640161V0.640182Z" fill="black"/>
    </g>

    <g id="reuters" class="spriteChank" viewBox="0 0 160 40">
        <path d="M40.6605 24.1697C39.9383 24.1697 39.2763 24.5368 38.9152 25.1487C38.5541 25.7606 38.5541 26.556 38.9152 27.1679C39.2763 27.7798 39.9383 28.1775 40.6605 28.1469C41.7437 28.1164 42.5863 27.2291 42.5863 26.1583C42.6164 25.0875 41.7437 24.2003 40.6605 24.1697Z" fill="#EC6519"/>
        <path d="M38.1629 29.3707C37.2301 29.3707 36.4778 30.1356 36.4778 31.0534C36.4778 32.0019 37.2301 32.7667 38.1629 32.7667C39.0957 32.7667 39.848 32.0019 39.848 31.0534C39.848 30.1356 39.0957 29.3707 38.1629 29.3707Z" fill="#EC6519"/>
        <path d="M34.5083 36.3741C35.3055 36.3471 35.9302 35.6682 35.9037 34.8576C35.8772 34.047 35.2094 33.4118 34.4121 33.4388C33.6149 33.4658 32.9902 34.1448 33.0167 34.9553C33.0433 35.7659 33.711 36.4011 34.5083 36.3741Z" fill="#EC6519"/>
        <path d="M30.2791 36.1933C29.6171 36.1933 29.1055 36.7134 29.1055 37.3865C29.1055 38.0596 29.6171 38.5797 30.2791 38.5797C30.9411 38.5797 31.4526 38.0596 31.4526 37.3865C31.4526 36.7134 30.9411 36.1933 30.2791 36.1933Z" fill="#EC6519"/>
        <path d="M26.1867 37.6312C25.6451 37.6312 25.1937 38.0902 25.1937 38.6409C25.1937 39.1916 25.6451 39.6505 26.1867 39.6505C26.7283 39.6505 27.1797 39.1916 27.1797 38.6409C27.2098 38.0902 26.7584 37.6312 26.1867 37.6312Z" fill="#EC6519"/>
        <path d="M22.3651 38.2125C21.8837 38.2125 21.4925 38.6103 21.4925 39.0998C21.4925 39.5893 21.8837 39.987 22.3651 39.987C22.8466 39.987 23.2378 39.5893 23.2378 39.0998C23.2077 38.6103 22.8165 38.2125 22.3651 38.2125Z" fill="#EC6519"/>
        <path d="M18.5135 37.6312C17.9719 37.6312 17.5205 38.0902 17.5205 38.6409C17.5205 39.1916 17.9719 39.6505 18.5135 39.6505C19.0551 39.6505 19.5065 39.1916 19.5065 38.6409C19.5065 38.0902 19.0551 37.6312 18.5135 37.6312Z" fill="#EC6519"/>
        <path d="M14.4211 36.1627C13.9999 36.1627 13.6087 36.3769 13.398 36.744C13.1874 37.1111 13.1874 37.5701 13.398 37.9372C13.6087 38.3043 13.9999 38.5185 14.4211 38.5185C15.053 38.5185 15.5947 37.9984 15.5947 37.3253C15.5646 36.7134 15.053 36.1933 14.4211 36.1627Z" fill="#EC6519"/>
        <path d="M10.2385 33.4398C9.72693 33.4398 9.24548 33.7151 8.97466 34.1741C8.70384 34.633 8.70384 35.1837 8.97466 35.6426C9.24548 36.1015 9.69684 36.3769 10.2385 36.3769C11.0208 36.3769 11.6828 35.7344 11.6828 34.9083C11.6828 34.1129 11.0509 33.4398 10.2385 33.4398Z" fill="#EC6519"/>
        <path d="M6.53729 29.3707C5.60447 29.3707 4.8522 30.1356 4.8522 31.084C4.8522 32.0324 5.60447 32.7973 6.53729 32.7973C7.47011 32.7973 8.22239 32.0324 8.22239 31.084C8.1923 30.1356 7.47011 29.3707 6.53729 29.3707Z" fill="#EC6519"/>
        <path d="M4.03974 24.1697C3.31756 24.1391 2.65556 24.5368 2.29446 25.1487C1.93337 25.7606 1.93337 26.556 2.29446 27.1679C2.65556 27.7798 3.31756 28.1775 4.03974 28.1469C5.12302 28.1164 5.96556 27.2291 5.96556 26.1583C5.96556 25.0875 5.09293 24.2003 4.03974 24.1697Z" fill="#EC6519"/>
        <path d="M3.13701 17.6836C1.87319 17.6836 0.850098 18.7238 0.850098 20.0088C0.850098 21.2938 1.87319 22.334 3.13701 22.334C4.40083 22.334 5.42393 21.2938 5.42393 20.0088C5.39383 18.7238 4.40083 17.6836 3.13701 17.6836Z" fill="#EC6519"/>
        <path d="M4.03974 11.8095C3.31756 11.8095 2.65556 12.1766 2.29446 12.7885C1.93337 13.4004 1.93337 14.1959 2.29446 14.8077C2.65556 15.4196 3.31756 15.8174 4.03974 15.7868C5.12302 15.7562 5.96556 14.8689 5.96556 13.7981C5.96556 12.7273 5.09293 11.8401 4.03974 11.8095Z" fill="#EC6519"/>
        <path d="M6.53729 7.18971C5.93547 7.18971 5.36374 7.49565 5.06283 8.04636C4.76192 8.56646 4.76192 9.23954 5.06283 9.75965C5.36374 10.2798 5.93547 10.6163 6.53729 10.6163C7.44002 10.5857 8.1923 9.85143 8.1923 8.903C8.1622 7.98517 7.44002 7.2203 6.53729 7.18971Z" fill="#EC6519"/>
        <path d="M10.2385 3.57956C9.45612 3.57956 8.79411 4.22204 8.79411 5.04809C8.79411 5.84355 9.42603 6.51663 10.2385 6.51663C11.0208 6.51663 11.6828 5.87415 11.6828 5.04809C11.6828 4.25264 11.0509 3.57956 10.2385 3.57956Z" fill="#EC6519"/>
        <path d="M14.4211 1.40735C13.7892 1.40735 13.2476 1.92745 13.2476 2.60053C13.2476 3.24302 13.7591 3.79372 14.4211 3.79372C15.053 3.79372 15.5947 3.27361 15.5947 2.60053C15.5646 1.95805 15.053 1.40735 14.4211 1.40735Z" fill="#EC6519"/>
        <path d="M18.5135 0.305945C17.9418 0.305945 17.4904 0.764863 17.4904 1.34616C17.4904 1.92745 17.9418 2.38637 18.5135 2.38637C19.0551 2.38637 19.5065 1.92745 19.5065 1.37675C19.4764 0.764863 19.0551 0.305945 18.5135 0.305945Z" fill="#EC6519"/>
        <path d="M22.3351 0C21.8536 0 21.4624 0.397729 21.4624 0.887241C21.4624 1.37675 21.8536 1.77448 22.3351 1.77448C22.8165 1.77448 23.2077 1.37675 23.2077 0.887241C23.2077 0.397729 22.8165 0 22.3351 0Z" fill="#EC6519"/>
        <path d="M26.1867 0.305945C25.6451 0.305945 25.1937 0.764863 25.1937 1.31556C25.1937 1.86626 25.6451 2.32518 26.1867 2.32518C26.7283 2.32518 27.1797 1.86626 27.1797 1.31556C27.2098 0.764863 26.7584 0.305945 26.1867 0.305945Z" fill="#EC6519"/>
        <path d="M30.2791 1.40735C29.8578 1.40735 29.4666 1.62151 29.256 1.98864C29.0453 2.35578 29.0453 2.81469 29.256 3.18183C29.4666 3.54896 29.8578 3.76312 30.2791 3.76312C30.911 3.76312 31.4526 3.24302 31.4526 2.56994C31.4526 1.89686 30.9411 1.40735 30.2791 1.40735Z" fill="#EC6519"/>
        <path d="M34.4617 3.61015C33.6793 3.61015 33.0173 4.25264 33.0173 5.07869C33.0173 5.87415 33.6493 6.54722 34.4617 6.54722C35.2441 6.54722 35.9061 5.90474 35.9061 5.07869C35.9061 4.25264 35.2441 3.61015 34.4617 3.61015Z" fill="#EC6519"/>
        <path d="M38.1629 7.18971C37.2301 7.18971 36.4778 7.95457 36.4778 8.903C36.4778 9.85143 37.2301 10.6163 38.1629 10.6163C39.0957 10.6163 39.848 9.85143 39.848 8.903C39.848 7.95457 39.0957 7.18971 38.1629 7.18971Z" fill="#EC6519"/>
        <path d="M40.6605 11.8095C39.9383 11.8095 39.2763 12.1766 38.9152 12.7885C38.5541 13.4004 38.5541 14.1959 38.9152 14.8077C39.2763 15.4196 39.9383 15.8174 40.6605 15.7868C41.7437 15.7562 42.5863 14.8689 42.5863 13.7981C42.5863 12.6967 41.7437 11.8095 40.6605 11.8095Z" fill="#EC6519"/>
        <path d="M31.6332 23.0377C31.3022 23.0377 31.0013 23.1906 30.8508 23.466C30.7003 23.7413 30.7003 24.1085 30.8508 24.3838C31.0013 24.6592 31.3022 24.8427 31.6332 24.8121C32.1146 24.7815 32.4757 24.3838 32.4757 23.9249C32.5058 23.466 32.1146 23.0683 31.6332 23.0377Z" fill="#EC6519"/>
        <path d="M29.4365 26.3725C29.1055 26.3725 28.8046 26.5254 28.6542 26.8008C28.5037 27.0761 28.5037 27.4433 28.6542 27.7186C28.8046 27.994 29.1356 28.1775 29.4365 28.1469C29.918 28.1164 30.2791 27.7186 30.2791 27.2597C30.2791 26.8008 29.918 26.4031 29.4365 26.3725Z" fill="#EC6519"/>
        <path d="M26.1566 28.5141C25.8256 28.5141 25.4946 28.6976 25.3141 29.0036C25.1335 29.3095 25.1335 29.6767 25.3141 29.9826C25.4946 30.2886 25.7955 30.4721 26.1566 30.4721C26.6982 30.4721 27.1195 30.0438 27.1195 29.4931C27.1195 28.9424 26.6982 28.5141 26.1566 28.5141Z" fill="#EC6519"/>
        <path d="M22.305 29.0954C21.5828 29.0954 21.011 29.6767 21.011 30.4109C21.011 31.1452 21.5828 31.7265 22.305 31.7265C23.0271 31.7265 23.5989 31.1452 23.5989 30.4109C23.5688 29.6767 22.9971 29.0954 22.305 29.0954Z" fill="#EC6519"/>
        <path d="M18.4232 28.2999C17.6108 28.2999 16.9488 28.973 16.9488 29.799C16.9488 30.6251 17.6108 31.2982 18.4232 31.2982C19.2357 31.2982 19.8977 30.6251 19.8977 29.799C19.8977 28.973 19.2357 28.2999 18.4232 28.2999Z" fill="#EC6519"/>
        <path d="M14.9327 25.7912C14.0299 25.7912 13.3078 26.5254 13.3078 27.4433C13.3078 28.3611 14.0299 29.0954 14.9327 29.0954C15.8354 29.0954 16.5576 28.3611 16.5576 27.4433C16.5576 26.5254 15.8354 25.7912 14.9327 25.7912Z" fill="#EC6519"/>
        <path d="M12.6157 22.4258C11.8634 22.4258 11.2616 23.0377 11.2616 23.8025C11.2616 24.5674 11.8634 25.1793 12.6157 25.1793C13.3679 25.1793 13.9698 24.5674 13.9698 23.8025C13.9999 23.0683 13.3679 22.4258 12.6157 22.4258Z" fill="#EC6519"/>
        <path d="M12.074 18.7544C11.5023 18.7544 11.0208 19.2439 11.0208 19.8252C11.0208 20.4065 11.5023 20.896 12.074 20.896C12.6458 20.896 13.1272 20.4065 13.1272 19.8252C13.1272 19.2134 12.6758 18.7544 12.074 18.7544Z" fill="#EC6519"/>
        <path d="M13.0069 15.1443C12.5254 15.1443 12.1342 15.542 12.1342 16.0315C12.1342 16.521 12.5254 16.9188 13.0069 16.9188C13.4883 16.9188 13.8795 16.521 13.8795 16.0315C13.9096 15.542 13.4883 15.1443 13.0069 15.1443Z" fill="#EC6519"/>
        <path d="M15.2336 11.8401C14.9026 11.8401 14.6017 11.993 14.4512 12.2684C14.3008 12.5437 14.3008 12.9109 14.4512 13.1862C14.6017 13.4616 14.9327 13.6452 15.2336 13.6146C15.715 13.6146 16.1062 13.2168 16.1062 12.7273C16.0761 12.2378 15.6849 11.8401 15.2336 11.8401Z" fill="#EC6519"/>
        <path d="M18.4834 9.51489C17.9418 9.51489 17.5205 9.94321 17.5205 10.4939C17.5205 11.0446 17.9418 11.4729 18.4834 11.4729C19.025 11.4729 19.4463 11.0446 19.4463 10.4939C19.4463 9.97381 19.025 9.51489 18.4834 9.51489Z" fill="#EC6519"/>
        <path d="M23.6523 9.61049C23.6797 8.88443 23.1231 8.27324 22.4089 8.24536C21.6948 8.21748 21.0937 8.78346 21.0663 9.50952C21.0389 10.2356 21.5955 10.8468 22.3096 10.8746C23.0237 10.9025 23.6249 10.3365 23.6523 9.61049Z" fill="#EC6519"/>
        <path d="M26.2168 8.68884C25.4043 8.68884 24.7423 9.36192 24.7423 10.188C24.7423 11.014 25.4043 11.6871 26.2168 11.6871C27.0292 11.6871 27.6912 11.014 27.6912 10.188C27.6912 9.36192 27.0292 8.68884 26.2168 8.68884Z" fill="#EC6519"/>
        <path d="M29.7073 10.8916C28.8046 10.8916 28.0824 11.6259 28.0824 12.5437C28.0824 13.4616 28.8046 14.1959 29.7073 14.1959C30.6101 14.1959 31.3323 13.4616 31.3323 12.5437C31.3323 11.6259 30.6101 10.8916 29.7073 10.8916Z" fill="#EC6519"/>
        <path d="M32.0243 14.7771C31.2721 14.7771 30.6703 15.389 30.6703 16.1539C30.6703 16.9188 31.2721 17.5307 32.0243 17.5307C32.7766 17.5307 33.3784 16.9188 33.3784 16.1539C33.3784 15.389 32.7766 14.7771 32.0243 14.7771Z" fill="#EC6519"/>
        <path d="M28.4736 22.5176C28.9223 22.5176 29.2861 22.1477 29.2861 21.6915C29.2861 21.2353 28.9223 20.8655 28.4736 20.8655C28.0249 20.8655 27.6612 21.2353 27.6612 21.6915C27.6612 22.1477 28.0249 22.5176 28.4736 22.5176Z" fill="#EC6519"/>
        <path d="M26.8788 23.4354C26.2168 23.4354 25.6751 23.9861 25.6751 24.6592C25.6751 25.3323 26.2168 25.883 26.8788 25.883C27.5408 25.883 28.0824 25.3323 28.0824 24.6592C28.1125 23.9861 27.5709 23.4354 26.8788 23.4354Z" fill="#EC6519"/>
        <path d="M23.7794 25.0875C23.0873 25.0875 22.5156 25.6688 22.5156 26.3725C22.5156 27.0761 23.0873 27.6574 23.7794 27.6574C24.4715 27.6574 25.0432 27.0761 25.0432 26.3725C25.0432 25.6688 24.4715 25.0875 23.7794 25.0875Z" fill="#EC6519"/>
        <path d="M20.1083 24.9957C19.7171 24.9957 19.326 25.2099 19.1454 25.577C18.9348 25.9441 18.9348 26.3725 19.1454 26.709C19.356 27.0761 19.7171 27.2903 20.1083 27.2903C20.7402 27.2903 21.2217 26.7702 21.2217 26.1583C21.2518 25.5158 20.7402 24.9957 20.1083 24.9957Z" fill="#EC6519"/>
        <path d="M17.4001 23.1294C16.9488 23.1294 16.5877 23.4966 16.5877 23.9555C16.5877 24.4144 16.9488 24.7816 17.4001 24.7816C17.8515 24.7816 18.2126 24.4144 18.2126 23.9555C18.2427 23.5272 17.8515 23.1294 17.4001 23.1294Z" fill="#EC6519"/>
        <path d="M16.3169 20.7125C15.9859 20.7125 15.715 20.9878 15.715 21.3244C15.715 21.6609 15.9859 21.9363 16.3169 21.9363C16.6479 21.9363 16.9187 21.6609 16.9187 21.3244C16.9187 20.9878 16.6479 20.7125 16.3169 20.7125Z" fill="#EC6519"/>
        <path d="M16.2567 17.5612C15.8053 17.5612 15.4442 17.9284 15.4442 18.3873C15.4442 18.8462 15.8053 19.2134 16.2567 19.2134C16.708 19.2134 17.0691 18.8462 17.0691 18.3873C17.0691 17.9284 16.708 17.5612 16.2567 17.5612Z" fill="#EC6519"/>
        <path d="M17.8515 14.1653C17.1895 14.1653 16.6479 14.716 16.6479 15.389C16.6479 16.0621 17.1895 16.6128 17.8515 16.6128C18.5135 16.6128 19.0551 16.0621 19.0551 15.389C19.0551 14.716 18.5135 14.1653 17.8515 14.1653Z" fill="#EC6519"/>
        <path d="M20.9509 12.3908C20.2588 12.3908 19.687 12.9721 19.687 13.6757C19.687 14.3794 20.2588 14.9607 20.9509 14.9607C21.643 14.9607 22.2147 14.3794 22.2147 13.6757C22.2147 12.9721 21.643 12.3908 20.9509 12.3908Z" fill="#EC6519"/>
        <path d="M24.622 12.7885C24.2007 12.7885 23.8396 13.0027 23.629 13.3392C23.4183 13.7063 23.4183 14.1347 23.629 14.5018C23.8396 14.8689 24.2308 15.0831 24.622 15.0525C25.2238 15.0219 25.7052 14.5324 25.7052 13.9205C25.7052 13.3086 25.2238 12.8191 24.622 12.7885Z" fill="#EC6519"/>
        <path d="M27.3001 15.2361C26.8487 15.2361 26.4876 15.6032 26.4876 16.0621C26.4876 16.521 26.8487 16.8882 27.3001 16.8882C27.7514 16.8882 28.1125 16.521 28.1125 16.0621C28.1426 15.6032 27.7815 15.2361 27.3001 15.2361Z" fill="#EC6519"/>
        <path d="M28.4435 18.1425C28.1125 18.1425 27.8417 18.4179 27.8417 18.7544C27.8417 19.091 28.1125 19.3663 28.4435 19.3663C28.7745 19.3663 29.0453 19.091 29.0453 18.7544C29.0453 18.4179 28.7745 18.1425 28.4435 18.1425Z" fill="#EC6519"/>
        <path d="M32.566 19.091C31.9943 19.091 31.5128 19.5805 31.5128 20.1618C31.5128 20.7431 31.9943 21.2326 32.566 21.2326C33.1377 21.2326 33.6192 20.7431 33.6192 20.1618C33.6192 19.5805 33.1377 19.091 32.566 19.091Z" fill="#EC6519"/>
        <path d="M36.9292 20.4065C36.2973 20.4065 35.8158 20.9266 35.8158 21.5385C35.8158 22.181 36.3274 22.6705 36.9292 22.6705C37.5611 22.6705 38.0425 22.1504 38.0425 21.5385C38.0425 20.9266 37.5611 20.4065 36.9292 20.4065Z" fill="#EC6519"/>
        <path d="M35.8158 24.4144C35.2441 24.4144 34.7626 24.9039 34.7626 25.4852C34.7626 26.0665 35.2441 26.556 35.8158 26.556C36.3875 26.556 36.869 26.0665 36.869 25.4852C36.869 24.9039 36.4176 24.4144 35.8158 24.4144Z" fill="#EC6519"/>
        <path d="M33.9201 27.7798C33.4386 27.7798 33.0173 28.1775 33.0173 28.6976C33.0173 29.1872 33.4085 29.6155 33.9201 29.6155C34.4015 29.6155 34.7927 29.1872 34.7927 28.6976C34.7927 28.2081 34.4015 27.8104 33.9201 27.7798Z" fill="#EC6519"/>
        <path d="M31.6332 30.2886C31.3623 30.2886 31.0915 30.4415 30.9411 30.6863C30.7906 30.931 30.7906 31.237 30.9411 31.4817C31.0915 31.7265 31.3323 31.8795 31.6332 31.8795C32.0544 31.8795 32.4155 31.5429 32.4155 31.084C32.4155 30.6557 32.0544 30.2886 31.6332 30.2886Z" fill="#EC6519"/>
        <path d="M29.2259 32.1242C28.8648 32.1242 28.5639 32.4302 28.5639 32.7973C28.5639 33.1644 28.8648 33.4704 29.2259 33.4704C29.587 33.4704 29.8879 33.1644 29.8879 32.7973C29.8879 32.4302 29.587 32.1242 29.2259 32.1242Z" fill="#EC6519"/>
        <path d="M26.4876 33.1644C26.0663 33.1644 25.7052 33.501 25.7052 33.9599C25.7052 34.3882 26.0362 34.7554 26.4876 34.7554C26.9089 34.7554 27.27 34.4188 27.27 33.9599C27.2399 33.501 26.9089 33.1644 26.4876 33.1644Z" fill="#EC6519"/>
        <path d="M23.2679 33.6846C22.7864 33.6846 22.3651 34.0823 22.3651 34.6024C22.3651 35.0919 22.7563 35.5202 23.2679 35.5202C23.7493 35.5202 24.1706 35.1225 24.1706 34.6024C24.1405 34.0823 23.7493 33.6846 23.2679 33.6846Z" fill="#EC6519"/>
        <path d="M19.5968 33.3174C18.9649 33.3174 18.4533 33.8375 18.4533 34.48C18.4533 35.1225 18.9649 35.6426 19.5968 35.6426C20.2287 35.6426 20.7402 35.1225 20.7402 34.48C20.7402 33.8375 20.2287 33.3174 19.5968 33.3174Z" fill="#EC6519"/>
        <path d="M15.715 31.9101C14.9628 31.9101 14.3609 32.522 14.3609 33.2868C14.3609 34.0517 14.9628 34.6636 15.715 34.6636C16.4673 34.6636 17.0691 34.0517 17.0691 33.2868C17.0992 32.522 16.4673 31.9101 15.715 31.9101Z" fill="#EC6519"/>
        <path d="M12.3148 29.2789C11.743 29.2789 11.2014 29.5849 10.9005 30.0744C10.5996 30.5945 10.5996 31.2064 10.9005 31.7265C11.2014 32.2466 11.743 32.5526 12.3148 32.522C13.1874 32.4914 13.8795 31.7877 13.8795 30.9005C13.8795 30.0438 13.1874 29.3095 12.3148 29.2789Z" fill="#EC6519"/>
        <path d="M9.45612 25.3628C8.49321 25.3628 7.71084 26.1583 7.71084 27.1373C7.71084 28.1164 8.49321 28.9118 9.45612 28.9118C10.419 28.9118 11.2014 28.1164 11.2014 27.1373C11.2014 26.1277 10.419 25.3628 9.45612 25.3628Z" fill="#EC6519"/>
        <path d="M9.22433 22.7554C9.27852 21.9801 8.70428 21.3069 7.94173 21.2518C7.17917 21.1967 6.51707 21.7806 6.46288 22.5559C6.40869 23.3312 6.98293 24.0044 7.74548 24.0595C8.50803 24.1146 9.17014 23.5307 9.22433 22.7554Z" fill="#EC6519"/>
        <path d="M8.86957 18.4867C8.90357 17.8624 8.43341 17.3284 7.81944 17.2938C7.20547 17.2592 6.68018 17.7372 6.64618 18.3615C6.61217 18.9857 7.08233 19.5198 7.6963 19.5544C8.31028 19.589 8.83556 19.1109 8.86957 18.4867Z" fill="#EC6519"/>
        <path d="M8.88439 13.4004C8.31266 13.4004 7.8312 13.8899 7.8312 14.4712C7.8312 15.0525 8.31266 15.542 8.88439 15.542C9.45612 15.542 9.93757 15.0525 9.93757 14.4712C9.93757 13.8899 9.45612 13.4004 8.88439 13.4004Z" fill="#EC6519"/>
        <path d="M10.7801 10.3715C10.4491 10.3715 10.1482 10.5245 9.99775 10.8305C9.8473 11.1058 9.8473 11.4729 9.99775 11.7483C10.1482 12.0236 10.4792 12.2072 10.7801 12.2072C11.2616 12.2072 11.6528 11.7789 11.6528 11.2894C11.6528 10.7693 11.2616 10.3715 10.7801 10.3715Z" fill="#EC6519"/>
        <path d="M13.067 8.10754C12.6458 8.10754 12.2847 8.44408 12.2847 8.903C12.2847 9.33132 12.6157 9.69846 13.067 9.69846C13.5184 9.69846 13.8494 9.36192 13.8494 8.903C13.8494 8.47468 13.4883 8.10754 13.067 8.10754Z" fill="#EC6519"/>
        <path d="M15.4743 6.51663C15.1132 6.51663 14.8123 6.82258 14.8123 7.18971C14.8123 7.55684 15.1132 7.86279 15.4743 7.86279C15.8354 7.86279 16.1363 7.55684 16.1363 7.18971C16.1363 6.79198 15.8354 6.51663 15.4743 6.51663Z" fill="#EC6519"/>
        <path d="M18.2126 5.26226C17.7913 5.26226 17.4302 5.59879 17.4302 6.05771C17.4302 6.48604 17.7612 6.85317 18.2126 6.85317C18.6339 6.85317 18.995 6.51663 18.995 6.05771C18.995 5.59879 18.6339 5.26226 18.2126 5.26226Z" fill="#EC6519"/>
        <path d="M21.4323 4.4668C21.1013 4.4668 20.8004 4.61977 20.65 4.92572C20.4995 5.20107 20.4995 5.5682 20.65 5.84355C20.8004 6.1189 21.1314 6.30247 21.4323 6.30247C21.9138 6.30247 22.305 5.87415 22.305 5.38463C22.305 4.89512 21.9138 4.49739 21.4323 4.4668Z" fill="#EC6519"/>
        <path d="M25.1034 4.31383C24.6821 4.31383 24.291 4.52799 24.0803 4.89512C23.8697 5.26226 23.8697 5.72117 24.0803 6.08831C24.291 6.45544 24.6821 6.6696 25.1034 6.6696C25.7353 6.6696 26.2469 6.1189 26.2469 5.47642C26.2469 4.83393 25.7353 4.31383 25.1034 4.31383Z" fill="#EC6519"/>
        <path d="M28.8648 5.20107C28.1125 5.20107 27.4806 5.81296 27.4806 6.60841C27.4806 7.37328 28.0824 8.01576 28.8648 8.01576C29.6171 8.01576 30.249 7.40387 30.249 6.60841C30.249 5.84355 29.6171 5.20107 28.8648 5.20107Z" fill="#EC6519"/>
        <path d="M32.4155 7.40387C31.5128 7.40387 30.8207 8.13814 30.8207 9.02538C30.8207 9.91262 31.5429 10.6469 32.4155 10.6469C33.3183 10.6469 34.0103 9.91262 34.0103 9.02538C34.0103 8.13814 33.2882 7.40387 32.4155 7.40387Z" fill="#EC6519"/>
        <path d="M35.2441 11.0752C34.6122 11.0752 34.0404 11.4118 33.7094 11.9625C33.3784 12.5132 33.3784 13.1862 33.7094 13.7369C34.0404 14.2876 34.6122 14.6242 35.2441 14.6242C36.207 14.5936 36.9593 13.8287 36.9593 12.8497C36.9292 11.9013 36.1769 11.1058 35.2441 11.0752Z" fill="#EC6519"/>
        <path d="M36.8389 15.9397C36.3574 15.9397 35.876 16.1845 35.6353 16.6128C35.3945 17.0411 35.3945 17.5918 35.6353 18.0202C35.876 18.4485 36.3574 18.7238 36.8389 18.6932C37.5912 18.6626 38.1629 18.0508 38.1629 17.3165C38.1629 16.5822 37.5912 15.9703 36.8389 15.9397Z" fill="#EC6519"/>
        <path d="M43.8501 19.9782C43.8501 21.2632 42.827 22.3034 41.5632 22.3034C40.2994 22.3034 39.2763 21.2632 39.2763 19.9782C39.2763 18.6932 40.2994 17.653 41.5632 17.653C42.827 17.6836 43.8501 18.7238 43.8501 19.9782Z" fill="#EC6519"/>
        <path d="M144.703 27.7276L141.098 21.5455C142.992 20.811 144.214 19.4644 144.214 17.0161V16.8324C144.214 12.8845 140.945 11.5991 137.37 11.5991C135.689 11.5991 133.092 11.7215 131.901 11.9051C131.442 11.9663 131.167 12.15 131.167 12.609V27.7582C131.167 28.0031 131.381 28.2173 131.626 28.2173H133.948C134.192 28.2173 134.376 28.0031 134.376 27.7582V22.0352C134.895 22.0658 136.759 22.127 137.37 22.127H137.889L141.22 27.7276C141.342 27.9419 141.434 28.1867 141.678 28.1867H144.489C144.673 28.1867 144.764 28.0643 144.764 27.9113C144.764 27.85 144.734 27.7888 144.703 27.7276ZM141.006 17.0161C141.006 19.036 139.723 19.495 137.339 19.495C136.942 19.495 134.712 19.4338 134.345 19.4338V14.4453C134.742 14.3841 136.85 14.3535 137.339 14.3535C139.662 14.3535 141.006 15.088 141.006 16.8324V17.0161Z" fill="#404040"/>
        <path d="M158.85 23.5654C158.85 21.3619 157.597 20.1989 155.642 19.4032C154.114 18.7911 152.77 18.2709 151.731 17.8424C150.722 17.4445 149.836 16.7406 149.836 15.9755C149.836 14.935 151.12 14.3229 152.831 14.3229C154.847 14.3229 156.436 14.5983 157.933 14.7513H157.995C158.239 14.7513 158.392 14.5677 158.392 14.3229V12.609C158.392 12.3948 158.208 12.2112 157.964 12.1806C157.17 11.9969 155.153 11.5685 152.953 11.5685C148.675 11.5685 146.628 13.4047 146.628 15.9755C146.628 17.5976 147.331 19.189 149.347 20.0153C151.364 20.8416 155.489 21.821 155.489 23.5348C155.489 24.8814 154.878 25.6159 152.8 25.6159C150.661 25.6159 148.492 25.3099 147.575 25.1875H147.514C147.27 25.1875 147.086 25.3711 147.086 25.6159V27.2686C147.086 27.5134 147.3 27.697 147.514 27.7276C148.614 27.9725 150.692 28.3397 152.739 28.3397C157.414 28.4009 158.85 25.8914 158.85 23.5654Z" fill="#404040"/>
        <path d="M113.629 14.4453H109.015V27.7276C109.015 27.9725 108.801 28.1867 108.557 28.1867H106.265C106.02 28.1867 105.807 27.9725 105.807 27.7276V14.4453H101.193C100.948 14.4453 100.734 14.2923 100.734 14.0168V12.1806C100.734 11.9357 100.948 11.7521 101.193 11.7521H113.629C113.873 11.7521 114.087 11.9357 114.087 12.1806V14.0168C114.087 14.2923 113.873 14.4453 113.629 14.4453Z" fill="#404040"/>
        <path d="M98.7178 21.8516V12.2112C98.7178 11.9663 98.5039 11.7827 98.2595 11.7827H95.9679C95.7234 11.7827 95.5096 11.9663 95.5096 12.2112V21.821C95.5096 24.453 94.2874 25.7077 91.8124 25.7077C89.3374 25.7077 88.1152 24.453 88.1152 21.821V12.2112C88.1152 11.9663 87.9014 11.7827 87.6569 11.7827H85.3653C85.1209 11.7827 84.907 11.9663 84.907 12.2112V21.821C84.907 26.7483 88.1152 28.3703 91.8124 28.3703C95.5096 28.3703 98.7178 26.7789 98.7178 21.8516Z" fill="#404040"/>
        <path d="M119.404 21.0559H126.798C127.042 21.0559 127.256 20.8416 127.256 20.5968V18.9135C127.256 18.6687 127.042 18.4545 126.798 18.4545H119.404V16.3428C119.404 14.4147 119.465 14.3535 121.237 14.3535H127.073C127.317 14.3535 127.531 14.1393 127.531 13.8944V12.4254C127.531 12.0888 127.409 11.9969 127.073 11.9357C126.34 11.8133 124.842 11.5991 122.092 11.5991C118.273 11.5991 116.226 11.5685 116.226 16.3428V23.6572C116.226 28.4315 118.273 28.4009 122.092 28.4009C124.842 28.4009 126.34 28.1867 127.073 28.0643C127.409 28.0337 127.531 27.9113 127.531 27.5746V26.1056C127.531 25.8608 127.317 25.6465 127.073 25.6465H121.237C119.495 25.6465 119.404 25.5853 119.404 23.6572V21.0559Z" fill="#404040"/>
        <path d="M73.7849 21.0559H81.1793C81.4237 21.0559 81.6376 20.8416 81.6376 20.5968V18.9135C81.6376 18.6687 81.4237 18.4545 81.1793 18.4545H73.7849V16.3428C73.7849 14.4147 73.846 14.3535 75.6182 14.3535H81.4542C81.6987 14.3535 81.9126 14.1393 81.9126 13.8944V12.4254C81.9126 12.0888 81.7903 11.9969 81.4542 11.9357C80.7209 11.8133 79.2237 11.5991 76.4738 11.5991C72.6544 11.5991 70.6072 11.5685 70.6072 16.3428V23.6572C70.6072 28.4315 72.6544 28.4009 76.4738 28.4009C79.2237 28.4009 80.7209 28.1867 81.4542 28.0643C81.7903 28.0337 81.9126 27.9113 81.9126 27.5746V26.1056C81.9126 25.8608 81.6987 25.6465 81.4542 25.6465H75.6182C73.8766 25.6465 73.7849 25.5853 73.7849 23.6572V21.0559Z" fill="#404040"/>
        <path d="M68.1017 27.7276L64.4657 21.5455C66.3601 20.811 67.5823 19.4644 67.5823 17.0161V16.8324C67.5823 12.8845 64.3129 11.5991 60.7379 11.5991C59.0574 11.5991 56.4602 11.7215 55.2686 11.9051C54.8103 11.9663 54.5353 12.15 54.5353 12.609V27.7582C54.5353 28.0031 54.7492 28.2173 54.9936 28.2173H57.3158C57.5602 28.2173 57.7436 28.0031 57.7436 27.7582V22.0352C58.263 22.0658 60.1268 22.127 60.7379 22.127H61.2574L64.5879 27.7276C64.7101 27.9419 64.8018 28.1867 65.0462 28.1867H67.8573C68.0406 28.1867 68.1323 28.0643 68.1323 27.9113C68.1323 27.85 68.1323 27.7888 68.1017 27.7276ZM64.4045 17.0161C64.4045 19.036 63.1212 19.495 60.7685 19.495C60.3713 19.495 58.1408 19.4338 57.7741 19.4338V14.4453C58.1713 14.3841 60.2796 14.3535 60.7685 14.3535C63.0907 14.3535 64.4045 15.088 64.4045 16.8324V17.0161Z" fill="#404040"/>

    </g>

    <g id="deloitte" class="spriteChank" viewBox="0 0 172 32">
        <path d="M162.112 27.4649C162.112 24.9605 164.143 22.9285 166.644 22.9285C169.146 22.9285 171.175 24.9605 171.175 27.4649C171.175 29.9694 169.146 32 166.644 32C164.143 32 162.112 29.9694 162.112 27.4649Z" fill="#86BC24"/>
        <path d="M17.5698 15.4512C17.5698 12.5779 17.0151 10.4462 15.9057 9.05746C14.7949 7.67003 13.1122 6.97695 10.8501 6.97695H8.44365V24.5477H10.2848C12.7974 24.5477 14.6388 23.8021 15.8112 22.3057C16.9822 20.812 17.5698 18.5267 17.5698 15.4512ZM26.1516 15.152C26.1516 20.3867 24.7458 24.4203 21.9341 27.2516C19.1224 30.0842 15.1699 31.5005 10.075 31.5005H0.175049V0.133025H10.766C15.6786 0.133025 19.4712 1.42069 22.1439 3.99473C24.8153 6.57008 26.1516 10.2874 26.1516 15.152Z" fill="#0F0B0B"/>
        <path d="M53.5744 31.5002H61.4521V0.00141516H53.5744V31.5002Z" fill="#0F0B0B"/>
        <path d="M72.5187 19.751C72.5187 21.7593 72.781 23.2911 73.3043 24.3438C73.8288 25.3979 74.7074 25.9242 75.9427 25.9242C77.165 25.9242 78.0292 25.3979 78.5328 24.3438C79.0364 23.2911 79.2868 21.7593 79.2868 19.751C79.2868 17.7532 79.0324 16.2463 78.5223 15.229C78.0108 14.2091 77.1389 13.6985 75.9023 13.6985C74.6931 13.6985 73.8288 14.2065 73.3043 15.2173C72.781 16.2293 72.5187 17.7401 72.5187 19.751ZM87.3049 19.751C87.3049 23.5773 86.3029 26.5622 84.2938 28.7017C82.2861 30.8426 79.4757 31.9137 75.8628 31.9137C72.398 31.9137 69.64 30.819 67.5929 28.6295C65.5432 26.4401 64.519 23.4815 64.519 19.751C64.519 15.9366 65.5224 12.9727 67.5315 10.8593C69.5405 8.74604 72.3573 7.6894 75.9847 7.6894C78.226 7.6894 80.2089 8.17902 81.9268 9.15692C83.6461 10.1348 84.9733 11.5354 85.9057 13.3599C86.8394 15.1818 87.3049 17.3135 87.3049 19.751Z" fill="#0F0B0B"/>
        <path d="M90.4333 31.5003H98.3124V8.10291H90.4333V31.5003Z" fill="#0F0B0B"/>
        <path d="M90.4332 5.27276H98.3122V0H90.4332V5.27276Z" fill="#0F0B0B"/>
        <path d="M114.275 25.5325C115.338 25.5325 116.605 25.2621 118.083 24.7253V30.6123C117.021 31.0796 116.011 31.4143 115.051 31.6125C114.091 31.8133 112.964 31.9131 111.675 31.9131C109.03 31.9131 107.123 31.2476 105.952 29.9193C104.786 28.5909 104.202 26.5511 104.202 23.7985V14.1535H101.442V8.10492H104.202V2.12989L112.141 0.747675V8.10492H117.168V14.1535H112.141V23.2604C112.141 24.7751 112.853 25.5325 114.275 25.5325Z" fill="#0F0B0B"/>
        <path d="M132.51 25.5325C133.573 25.5325 134.84 25.2621 136.318 24.7253V30.6123C135.257 31.0796 134.246 31.4143 133.286 31.6125C132.325 31.8133 131.202 31.9131 129.91 31.9131C127.265 31.9131 125.359 31.2476 124.19 29.9193C123.022 28.5909 122.437 26.5511 122.437 23.7985V14.1535H119.676V8.10492H122.437V2.03933L130.375 0.747675V8.10492H135.404V14.1535H130.375V23.2604C130.375 24.7751 131.087 25.5325 132.51 25.5325Z" fill="#0F0B0B"/>
        <path d="M146.259 16.9006C146.367 15.6195 146.733 14.6809 147.357 14.0811C147.984 13.4825 148.758 13.1833 149.684 13.1833C150.694 13.1833 151.496 13.5193 152.091 14.1966C152.691 14.8699 153.003 15.7717 153.028 16.9006H146.259ZM157.37 10.4478C155.497 8.61014 152.84 7.68996 149.403 7.68996C145.79 7.68996 143.01 8.7466 141.061 10.8599C139.114 12.9732 138.139 16.0054 138.139 19.9564C138.139 23.7826 139.192 26.7334 141.293 28.8047C143.395 30.876 146.347 31.913 150.149 31.913C151.975 31.913 153.546 31.7883 154.863 31.5402C156.171 31.2947 157.438 30.851 158.667 30.2105L157.456 24.9377C156.563 25.3026 155.714 25.5835 154.911 25.7686C153.752 26.0377 152.48 26.1729 151.095 26.1729C149.576 26.1729 148.378 25.8014 147.499 25.0585C146.62 24.3142 146.152 23.2878 146.098 21.9804H160.18V18.3878C160.18 14.9317 159.244 12.2841 157.37 10.4478Z" fill="#0F0B0B"/>
        <path d="M36.6072 16.9006C36.7147 15.6195 37.0806 14.6809 37.7047 14.0811C38.3303 13.4825 39.1055 13.1833 40.0328 13.1833C41.0399 13.1833 41.8424 13.5193 42.4392 14.1966C43.0384 14.8699 43.3493 15.7717 43.3769 16.9006H36.6072ZM47.7189 10.4478C45.8449 8.61014 43.1892 7.68996 39.7508 7.68996C36.1364 7.68996 33.3574 8.7466 31.4099 10.8599C29.4625 12.9732 28.4869 16.0054 28.4869 19.9564C28.4869 23.7826 29.5387 26.7334 31.6422 28.8047C33.7431 30.876 36.695 31.913 40.4969 31.913C42.3224 31.913 43.8934 31.7883 45.2101 31.5402C46.5189 31.2947 47.7859 30.851 49.016 30.2105L47.8042 24.9377C46.9111 25.3026 46.0612 25.5835 45.26 25.7686C44.0981 26.0377 42.8273 26.1729 41.4423 26.1729C39.925 26.1729 38.7253 25.8014 37.8466 25.0585C36.9666 24.3142 36.4998 23.2878 36.4461 21.9804H50.528V18.3878C50.528 14.9317 49.5916 12.2841 47.7189 10.4478Z" fill="#0F0B0B"/>
    </g>

    <g id="google" class="spriteChank" viewBox="0 0 32 32">
        <path d="M3.71564 2.04665C3.35372 2.48087 3.1707 3.0366 3.20376 3.6009V28.1152C3.17257 28.6792 3.35537 29.2343 3.71564 29.6694L3.7994 29.7532L17.527 16.0163V15.6905L3.7994 1.96289L3.71564 2.04665Z" fill="url(#paint0_linear_20460_14105)"/>
        <path d="M22.1061 20.5952L17.5271 16.0162V15.6905L22.1061 11.1208L22.2085 11.1766L27.6344 14.2572C29.1886 15.132 29.1886 16.5746 27.6344 17.4588L22.2085 20.5393L22.1061 20.5952Z" fill="url(#paint1_linear_20460_14105)"/>
        <path d="M22.2084 20.5394L17.555 15.886L3.7157 29.6694C4.03469 29.9317 4.43185 30.0804 4.84464 30.0922C5.25743 30.104 5.66243 29.9782 5.99588 29.7346L22.1805 20.5394" fill="url(#paint2_linear_20460_14105)"/>
        <path d="M22.2084 11.1767L5.99588 1.97219C5.66601 1.71858 5.25832 1.58735 4.84245 1.60093C4.42658 1.61451 4.02832 1.77205 3.7157 2.04664L17.5271 15.858L22.2084 11.1767Z" fill="url(#paint3_linear_20460_14105)"/>
        <path opacity="0.1" d="M22.106 20.437L5.99585 29.5764C5.67449 29.8158 5.28443 29.9451 4.88368 29.9451C4.48292 29.9451 4.09286 29.8158 3.77151 29.5764L3.68774 29.6601L3.77151 29.7439C4.09286 29.9833 4.48292 30.1127 4.88368 30.1127C5.28443 30.1127 5.67449 29.9833 5.99585 29.7439L22.1805 20.5487L22.106 20.437Z" fill="black"/>
        <path opacity="0.07" d="M3.71573 29.5205C3.35486 29.082 3.17213 28.5239 3.20385 27.9569V28.1151C3.17266 28.6792 3.35546 29.2342 3.71573 29.6694L3.79949 29.5856L3.71573 29.5205Z" fill="black"/>
        <path opacity="0.07" d="M27.6344 17.2913L22.1061 20.437L22.2085 20.5394L27.6344 17.4216C27.9526 17.2816 28.228 17.0597 28.4324 16.7784C28.6368 16.4972 28.7629 16.1667 28.7977 15.8208C28.7342 16.1406 28.5956 16.4407 28.3933 16.6963C28.1911 16.952 27.9309 17.1559 27.6344 17.2913Z" fill="black"/>
        <path opacity="0.3" d="M5.99592 2.13968L27.6344 14.4154C27.9281 14.5475 28.1865 14.7469 28.3886 14.9976C28.5907 15.2482 28.7309 15.543 28.7977 15.858C28.7648 15.5115 28.6395 15.1802 28.4348 14.8986C28.2302 14.617 27.9538 14.3955 27.6344 14.2572L5.99592 1.97216C4.46959 1.09732 3.20386 1.82325 3.20386 3.60086V3.75908C3.20386 1.99077 4.46959 1.25553 5.99592 2.13968Z" fill="white"/>
        <defs>
        <linearGradient id="paint0_linear_20460_14105" x1="16.3171" y1="3.34031" x2="-2.28729" y2="21.9447" gradientUnits="userSpaceOnUse">
        <stop stop-color="#008EFF"/>
        <stop offset="0.01" stop-color="#008FFF"/>
        <stop offset="0.26" stop-color="#00ACFF"/>
        <stop offset="0.51" stop-color="#00C0FF"/>
        <stop offset="0.76" stop-color="#00CDFF"/>
        <stop offset="1" stop-color="#00D1FF"/>
        </linearGradient>
        <linearGradient id="paint1_linear_20460_14105" x1="27.8205" y1="15.858" x2="0.998114" y2="15.858" gradientUnits="userSpaceOnUse">
        <stop stop-color="#FFD800"/>
        <stop offset="1" stop-color="#FF8A00"/>
        </linearGradient>
        <linearGradient id="paint2_linear_20460_14105" x1="19.6677" y1="18.3988" x2="-5.55394" y2="43.6204" gradientUnits="userSpaceOnUse">
        <stop stop-color="#FF3A44"/>
        <stop offset="1" stop-color="#B11162"/>
        </linearGradient>
        <linearGradient id="paint3_linear_20460_14105" x1="0.234931" y1="-6.11548" x2="11.5055" y2="5.14583" gradientUnits="userSpaceOnUse">
        <stop stop-color="#328E71"/>
        <stop offset="0.07" stop-color="#2D9571"/>
        <stop offset="0.48" stop-color="#15BD74"/>
        <stop offset="0.8" stop-color="#06D575"/>
        <stop offset="1" stop-color="#00DE76"/>
        </linearGradient>
        </defs>
    </g>
</svg>
