<svg xmlns="http://www.w3.org/2000/svg">
  <symbol viewBox="0 0 184 40" id="cc_logo">
    <path d="M112.254 23.2858C113.887 23.2858 115.254 21.9191 115.254 20.2858C115.254 18.6526 113.887 17.2858 112.254 17.2858C110.621 17.2858 109.254 18.6526 109.254 20.2858C109.254 21.9191 110.621 23.2858 112.254 23.2858Z" fill="var(--primary)"></path>
    <path d="M170.577 11.2555C168.177 11.2555 166.621 12.1572 165.675 13.5428C164.729 12.0869 163.241 11.2555 161.246 11.2555C158.982 11.2555 157.494 12.1572 156.716 13.3346V11.7408H151.646V29.068H156.716V19.296C156.716 17.2507 157.663 16.0382 159.354 16.0382C160.976 16.0382 161.788 17.1466 161.788 18.8796V29.068H166.858V19.296C166.858 17.2507 167.805 16.0382 169.495 16.0382C171.117 16.0382 171.928 17.1466 171.928 18.8796V29.068H177V18.4295C177 14.097 174.464 11.2555 170.577 11.2555ZM141.167 24.4936C138.968 24.4936 137.278 22.8647 137.278 20.4044C137.278 17.9442 138.968 16.3153 141.167 16.3153C143.363 16.3153 145.054 17.9442 145.054 20.4044C145.054 22.8647 143.363 24.4936 141.167 24.4936ZM141.167 11.2555C136.197 11.2555 132.208 15.2406 132.208 20.4044C132.208 25.5682 136.197 29.5533 141.167 29.5533C146.135 29.5533 150.124 25.5682 150.124 20.4044C150.124 15.2406 146.135 11.2555 141.167 11.2555Z" fill="currentColor"></path>
    <path d="M125.012 24.7356C122.815 24.7356 121.193 23.1067 121.193 20.7154C121.193 18.3241 122.815 16.6951 125.012 16.6951C126.5 16.6951 127.717 17.4238 128.292 18.6363L132.721 16.0017C131.267 13.3332 128.359 11.5665 125.081 11.5665C119.942 11.5665 116.122 15.5515 116.122 20.7154C116.122 25.8792 119.942 29.8643 125.081 29.8643C128.393 29.8643 131.267 28.0961 132.721 25.3939L128.292 22.7944C127.751 24.0069 126.5 24.7356 125.012 24.7356ZM91.3083 24.9438C88.9755 24.9438 87.285 23.3149 87.285 20.7154C87.285 18.1159 88.9755 16.487 91.3083 16.487C93.641 16.487 95.3315 18.1159 95.3315 20.7154C95.3315 23.3149 93.641 24.9438 91.3083 24.9438ZM95.3315 13.6807C94.2159 12.3641 92.5597 11.5665 90.2942 11.5665C85.8661 11.5665 82.2147 15.5515 82.2147 20.7154C82.2147 25.8792 85.8661 29.8643 90.2942 29.8643C92.5597 29.8643 94.2159 29.0667 95.3315 27.75V29.379H100.402V12.0518H95.3315V13.6807ZM78.3945 7.20023L73.3243 8.7588V12.0518H70.6197V17.0426H73.3243V23.1756C73.3243 28.0272 75.2508 30.0724 81.8772 29.379V24.6667C79.646 24.8045 78.3945 24.6667 78.3945 23.1756V17.0426H81.8772V12.0518H78.3945V7.20023Z" fill="currentColor"></path>
    <path d="M64.1368 29.0679H69.2071V11.7408H64.1368V29.0679Z" fill="currentColor"></path>
    <path d="M102.763 29.068H107.833V4L102.763 5.58386V29.068Z" fill="currentColor"></path>
    <path d="M53.5228 24.6314C51.1887 24.6314 49.4968 23.0025 49.4968 20.4058C49.4968 17.8035 51.1887 16.1788 53.5228 16.1788C55.8528 16.1788 57.5447 17.8035 57.5447 20.4058C57.5447 23.0025 55.8528 24.6314 53.5228 24.6314ZM54.5369 11.2569C52.27 11.2569 50.6138 12.0517 49.4968 13.3683V11.7422H44.4266V36H49.4968V27.4377C50.6138 28.7543 52.27 29.5533 54.5369 29.5533C58.9663 29.5533 62.615 25.5668 62.615 20.4058C62.615 15.2392 58.9663 11.2569 54.5369 11.2569ZM32.9674 24.6328C30.636 24.6328 28.9455 23.0039 28.9455 20.4044C28.9455 17.8049 30.636 16.176 32.9674 16.176C35.3001 16.176 36.9907 17.8049 36.9907 20.4044C36.9907 23.0039 35.3001 24.6328 32.9674 24.6328ZM36.9907 13.3697C35.8751 12.0531 34.2188 11.2555 31.9533 11.2555C27.5253 11.2555 23.8739 15.2406 23.8739 20.4044C23.8739 25.5682 27.5253 29.5533 31.9533 29.5533C34.2188 29.5533 35.8751 28.7557 36.9907 27.4391V29.068H42.0623V11.7408H36.9907V13.3697ZM15.8904 16.3842C17.3779 16.3842 18.595 17.1128 19.17 18.3254L23.5981 15.6907C22.1449 13.0223 19.2372 11.2555 15.9577 11.2555C10.8202 11.2555 7 15.2406 7 20.4044C7 25.5682 10.8202 29.5533 15.9577 29.5533C19.2715 29.5533 22.1449 27.7851 23.5981 25.083L19.17 22.4835C18.6293 23.696 17.3779 24.4246 15.8904 24.4246C13.6936 24.4246 12.0703 22.7957 12.0703 20.4044C12.0703 18.0131 13.6936 16.3842 15.8904 16.3842Z" fill="currentColor"></path>
    <path d="M66.7328 10.4495C68.389 10.4495 69.7749 9.02736 69.7749 7.32952C69.7749 5.63169 68.389 4.21097 66.7328 4.21097C65.0765 4.21097 63.6906 5.63169 63.6906 7.32952C63.6906 9.02736 65.0765 10.4495 66.7328 10.4495Z" fill="currentColor"></path>
  </symbol>

  <symbol viewBox="0 0 24 24" id="cc_logo_short">
    <path fill-rule="evenodd" clip-rule="evenodd" d="M11.8124 17.1658C8.89348 17.1658 6.73848 15.0425 6.73848 11.9255C6.73848 8.80842 8.89348 6.68516 11.8124 6.68516C13.7887 6.68516 15.4059 7.63494 16.1698 9.21547L22.055 5.78121C20.1225 2.30295 16.2591 0 11.9036 0C5.07574 0 0 5.19447 0 11.9255C0 18.6565 5.07574 23.8509 11.9036 23.8509C16.3047 23.8509 20.1225 21.5461 22.055 18.0239L16.1698 14.6355C15.4515 16.216 13.7887 17.1658 11.8124 17.1658Z" fill="currentColor"></path>
    <path fill-rule="evenodd" clip-rule="evenodd" d="M20.3766 14.7118C21.926 14.7118 23.2225 13.4079 23.2225 11.8497C23.2225 10.2915 21.926 8.98755 20.3766 8.98755C18.8272 8.98755 17.5306 10.2915 17.5306 11.8497C17.5306 13.4079 18.8272 14.7118 20.3766 14.7118Z" fill="var(--primary)"></path>
  </symbol>

  <symbol viewBox="0 0 24 24" id="arrowShort">
    <path d="M11 4L11 16.17L7.41 12.59L6 14L12 20L18 14L16.59 12.59L13 16.17L13 4L11 4Z" fill="currentColor"></path>
  </symbol>

  <symbol viewBox="0 0 24 24" id="arrowLong">
    <path d="M11 2L11 18.17L8.41 15.59L7 17L12 22L17 17L15.59 15.59L13 18.17L13 2L11 2Z" fill="currentColor"></path>
  </symbol>

  <symbol viewBox="0 0 24 24" id="chevron_down">
    <path d="M5.98959 9.70193L12 15.7123L18.0104 9.70193L16.5962 8.28772L12 12.8839L7.40381 8.28772L5.98959 9.70193Z" fill="currentColor"></path>
  </symbol>

  <symbol viewBox="0 0 24 24" id="chevron_double">
    <path d="M11.9998 18.4244L5.98944 12.414L7.40365 10.9998L11.9998 15.596L16.596 10.9998L18.0103 12.414L11.9998 18.4244Z" fill="currentColor"></path>
    <path d="M11.9998 12.9998L5.98944 6.98941L7.40365 5.5752L11.9998 10.1714L16.596 5.5752L18.0103 6.98941L11.9998 12.9998Z" fill="currentColor"></path>
  </symbol>

  <symbol viewBox="0 0 24 24" id="hamburger">
    <path d="M3 8V6H21V8H3Z" fill="currentColor"></path>
    <path d="M3 13H21V11H3V13Z" fill="currentColor"></path>
    <path d="M3 18H21V16H3V18Z" fill="currentColor"></path>
  </symbol>

  <symbol fill="none" viewBox="0 0 24 24" id="language">
    <path d="M12 20C16.4183 20 20 16.4183 20 12C20 7.58172 16.4183 4 12 4C7.58172 4 4 7.58172 4 12C4 16.4183 7.58172 20 12 20Z" stroke="currentColor" stroke-width="1.6" stroke-linecap="round" stroke-linejoin="round"></path>
    <path d="M12 20C14.1333 18.0606 15.2 15.3939 15.2 12C15.2 8.60606 14.1333 5.93939 12 4C9.86665 5.93939 8.79999 8.60606 8.79999 12C8.79999 15.3939 9.86665 18.0606 12 20Z" stroke="currentColor" stroke-width="1.6" stroke-linecap="round" stroke-linejoin="round"></path>
    <path d="M4.39999 14.4001H19.6M4.39999 9.6001H19.6H4.39999Z" stroke="currentColor" stroke-width="1.6" stroke-linecap="round" stroke-linejoin="round"></path>
  </symbol>

  <symbol viewBox="0 0 24 24" id="close">
    <path d="M17 8.41L15.59 7L12 10.59L8.41 7L7 8.41L10.59 12L7 15.59L8.41 17L12 13.41L15.59 17L17 15.59L13.41 12L17 8.41Z" fill="currentColor"/>
  </symbol>

  <symbol viewBox="0 0 16 16" id="closeRound">
      <path fill-rule="evenodd" clip-rule="evenodd" d="M1.3335 8.00004C1.3335 4.31337 4.3135 1.33337 8.00016 1.33337C11.6868 1.33337 14.6668 4.31337 14.6668 8.00004C14.6668 11.6867 11.6868 14.6667 8.00016 14.6667C4.3135 14.6667 1.3335 11.6867 1.3335 8.00004ZM8.00016 7.06004L9.72683 5.33337L10.6668 6.27337L8.94016 8.00004L10.6668 9.72671L9.72683 10.6667L8.00016 8.94004L6.2735 10.6667L5.3335 9.72671L7.06016 8.00004L5.3335 6.27337L6.2735 5.33337L8.00016 7.06004Z" fill="currentColor"/>
  </symbol>

  <symbol viewBox="0 0 24 24" id="user">
    <path d="M12 2C9.243 2 7 4.243 7 7C7 9.757 9.243 12 12 12C14.757 12 17 9.757 17 7C17 4.243 14.757 2 12 2ZM12 10C10.346 10 9 8.654 9 7C9 5.346 10.346 4 12 4C13.654 4 15 5.346 15 7C15 8.654 13.654 10 12 10ZM21 21V20C21 16.141 17.859 13 14 13H10C6.14 13 3 16.141 3 20V21H5V20C5 17.243 7.243 15 10 15H14C16.757 15 19 17.243 19 20V21H21Z" fill="currentColor"></path>
  </symbol>

  <symbol viewBox="0 0 24 24" id="facebook">
    <path d="M24 12C24 5.37258 18.6274 0 12 0C5.37258 0 0 5.37258 0 12C0 17.9895 4.3882 22.954 10.125 23.8542V15.4688H7.07812V12H10.125V9.35625C10.125 6.34875 11.9166 4.6875 14.6576 4.6875C15.9701 4.6875 17.3438 4.92188 17.3438 4.92188V7.875H15.8306C14.34 7.875 13.875 8.80008 13.875 9.75V12H17.2031L16.6711 15.4688H13.875V23.8542C19.6118 22.954 24 17.9895 24 12Z" fill="currentColor"/>
  </symbol>

  <symbol viewBox="0 0 24 24" id="twitter">
    <g clip-path="url(#clip0_3878_621)">
      <path d="M7.55016 21.7502C16.6045 21.7502 21.5583 14.2469 21.5583 7.74211C21.5583 7.53117 21.5536 7.31554 21.5442 7.1046C22.5079 6.40771 23.3395 5.5445 24 4.55554C23.1025 4.95484 22.1496 5.21563 21.1739 5.32898C22.2013 4.71315 22.9705 3.74572 23.3391 2.60601C22.3726 3.1788 21.3156 3.58286 20.2134 3.80085C19.4708 3.01181 18.489 2.48936 17.4197 2.3143C16.3504 2.13923 15.2532 2.32129 14.2977 2.83234C13.3423 3.34339 12.5818 4.15495 12.1338 5.14156C11.6859 6.12816 11.5754 7.23486 11.8195 8.29054C9.86249 8.19233 7.94794 7.68395 6.19998 6.79834C4.45203 5.91274 2.90969 4.66968 1.67297 3.14976C1.0444 4.23349 0.852057 5.51589 1.13503 6.73634C1.418 7.95678 2.15506 9.02369 3.19641 9.72023C2.41463 9.69541 1.64998 9.48492 0.965625 9.10617V9.1671C0.964925 10.3044 1.3581 11.4068 2.07831 12.287C2.79852 13.1672 3.80132 13.7708 4.91625 13.9952C4.19206 14.1934 3.43198 14.2222 2.69484 14.0796C3.00945 15.0577 3.62157 15.9131 4.44577 16.5266C5.26997 17.14 6.26512 17.4808 7.29234 17.5015C5.54842 18.8714 3.39417 19.6144 1.17656 19.6109C0.783287 19.6103 0.390399 19.5861 0 19.5387C2.25286 20.984 4.87353 21.7516 7.55016 21.7502Z" fill="currentColor"/>
    </g>
    <defs>
    <clipPath id="clip0_3878_621">
      <rect width="24" height="24" fill="white"/>
    </clipPath>
    </defs>
  </symbol>

  <symbol viewBox="0 0 24 24" id="linkedin">
    <path d="M22.2234 0H1.77187C0.792187 0 0 0.773438 0 1.72969V22.2656C0 23.2219 0.792187 24 1.77187 24H22.2234C23.2031 24 24 23.2219 24 22.2703V1.72969C24 0.773438 23.2031 0 22.2234 0ZM7.12031 20.4516H3.55781V8.99531H7.12031V20.4516ZM5.33906 7.43438C4.19531 7.43438 3.27188 6.51094 3.27188 5.37187C3.27188 4.23281 4.19531 3.30937 5.33906 3.30937C6.47813 3.30937 7.40156 4.23281 7.40156 5.37187C7.40156 6.50625 6.47813 7.43438 5.33906 7.43438ZM20.4516 20.4516H16.8937V14.8828C16.8937 13.5562 16.8703 11.8453 15.0422 11.8453C13.1906 11.8453 12.9094 13.2937 12.9094 14.7891V20.4516H9.35625V8.99531H12.7687V10.5609H12.8156C13.2891 9.66094 14.4516 8.70938 16.1813 8.70938C19.7859 8.70938 20.4516 11.0813 20.4516 14.1656V20.4516Z" fill="currentColor"/>
  </symbol>

  <symbol viewBox="0 0 24 24" id="linkedin_2">
    <path d="M21 21H17V14.25C17 13.1914 15.8121 12.3058 14.7535 12.3058C13.6949 12.3058 13 13.1914 13 14.25V21H9.00001V9H13V11C13.6623 9.92857 15.3564 9.23727 16.525 9.23727C18.9965 9.23727 21 11.2786 21 13.75V21ZM7 21H3V9H7V21ZM5.00001 3C6.10458 3 7.00001 3.89543 7.00001 5C7.00001 6.10457 6.10458 7 5.00001 7C3.89544 7 3.00001 6.10457 3.00001 5C3.00001 3.89543 3.89544 3 5.00001 3Z" fill="currentColor"/>
  </symbol>

  <symbol viewBox="0 0 24 24" id="inst">
    <path d="M12 2.16094C15.2063 2.16094 15.5859 2.175 16.8469 2.23125C18.0188 2.28281 18.6516 2.47969 19.0734 2.64375C19.6313 2.85938 20.0344 3.12188 20.4516 3.53906C20.8734 3.96094 21.1313 4.35938 21.3469 4.91719C21.5109 5.33906 21.7078 5.97656 21.7594 7.14375C21.8156 8.40937 21.8297 8.78906 21.8297 11.9906C21.8297 15.1969 21.8156 15.5766 21.7594 16.8375C21.7078 18.0094 21.5109 18.6422 21.3469 19.0641C21.1313 19.6219 20.8687 20.025 20.4516 20.4422C20.0297 20.8641 19.6313 21.1219 19.0734 21.3375C18.6516 21.5016 18.0141 21.6984 16.8469 21.75C15.5813 21.8062 15.2016 21.8203 12 21.8203C8.79375 21.8203 8.41406 21.8062 7.15313 21.75C5.98125 21.6984 5.34844 21.5016 4.92656 21.3375C4.36875 21.1219 3.96563 20.8594 3.54844 20.4422C3.12656 20.0203 2.86875 19.6219 2.65313 19.0641C2.48906 18.6422 2.29219 18.0047 2.24063 16.8375C2.18438 15.5719 2.17031 15.1922 2.17031 11.9906C2.17031 8.78438 2.18438 8.40469 2.24063 7.14375C2.29219 5.97187 2.48906 5.33906 2.65313 4.91719C2.86875 4.35938 3.13125 3.95625 3.54844 3.53906C3.97031 3.11719 4.36875 2.85938 4.92656 2.64375C5.34844 2.47969 5.98594 2.28281 7.15313 2.23125C8.41406 2.175 8.79375 2.16094 12 2.16094ZM12 0C8.74219 0 8.33438 0.0140625 7.05469 0.0703125C5.77969 0.126563 4.90313 0.332812 4.14375 0.628125C3.35156 0.9375 2.68125 1.34531 2.01563 2.01562C1.34531 2.68125 0.9375 3.35156 0.628125 4.13906C0.332812 4.90313 0.126563 5.775 0.0703125 7.05C0.0140625 8.33437 0 8.74219 0 12C0 15.2578 0.0140625 15.6656 0.0703125 16.9453C0.126563 18.2203 0.332812 19.0969 0.628125 19.8563C0.9375 20.6484 1.34531 21.3188 2.01563 21.9844C2.68125 22.65 3.35156 23.0625 4.13906 23.3672C4.90313 23.6625 5.775 23.8687 7.05 23.925C8.32969 23.9812 8.7375 23.9953 11.9953 23.9953C15.2531 23.9953 15.6609 23.9812 16.9406 23.925C18.2156 23.8687 19.0922 23.6625 19.8516 23.3672C20.6391 23.0625 21.3094 22.65 21.975 21.9844C22.6406 21.3188 23.0531 20.6484 23.3578 19.8609C23.6531 19.0969 23.8594 18.225 23.9156 16.95C23.9719 15.6703 23.9859 15.2625 23.9859 12.0047C23.9859 8.74688 23.9719 8.33906 23.9156 7.05938C23.8594 5.78438 23.6531 4.90781 23.3578 4.14844C23.0625 3.35156 22.6547 2.68125 21.9844 2.01562C21.3188 1.35 20.6484 0.9375 19.8609 0.632812C19.0969 0.3375 18.225 0.13125 16.95 0.075C15.6656 0.0140625 15.2578 0 12 0Z" fill="currentColor"/>
    <path d="M12 5.83594C8.59688 5.83594 5.83594 8.59688 5.83594 12C5.83594 15.4031 8.59688 18.1641 12 18.1641C15.4031 18.1641 18.1641 15.4031 18.1641 12C18.1641 8.59688 15.4031 5.83594 12 5.83594ZM12 15.9984C9.79219 15.9984 8.00156 14.2078 8.00156 12C8.00156 9.79219 9.79219 8.00156 12 8.00156C14.2078 8.00156 15.9984 9.79219 15.9984 12C15.9984 14.2078 14.2078 15.9984 12 15.9984Z" fill="currentColor"/>
    <path d="M19.8469 5.59238C19.8469 6.38926 19.2 7.03145 18.4078 7.03145C17.6109 7.03145 16.9688 6.38457 16.9688 5.59238C16.9688 4.79551 17.6156 4.15332 18.4078 4.15332C19.2 4.15332 19.8469 4.8002 19.8469 5.59238Z" fill="currentColor"/>
  </symbol>

  <symbol viewBox="0 0 24 24" id="youtube">
    <path d="M23.7609 7.1998C23.7609 7.1998 23.5266 5.54512 22.8047 4.81855C21.8906 3.8623 20.8688 3.85762 20.4 3.80137C17.0438 3.55762 12.0047 3.55762 12.0047 3.55762H11.9953C11.9953 3.55762 6.95625 3.55762 3.6 3.80137C3.13125 3.85762 2.10938 3.8623 1.19531 4.81855C0.473438 5.54512 0.24375 7.1998 0.24375 7.1998C0.24375 7.1998 0 9.14512 0 11.0857V12.9045C0 14.8451 0.239062 16.7904 0.239062 16.7904C0.239062 16.7904 0.473437 18.4451 1.19062 19.1717C2.10469 20.1279 3.30469 20.0951 3.83906 20.1982C5.76094 20.3811 12 20.4373 12 20.4373C12 20.4373 17.0438 20.4279 20.4 20.1889C20.8688 20.1326 21.8906 20.1279 22.8047 19.1717C23.5266 18.4451 23.7609 16.7904 23.7609 16.7904C23.7609 16.7904 24 14.8498 24 12.9045V11.0857C24 9.14512 23.7609 7.1998 23.7609 7.1998ZM9.52031 15.1123V8.36699L16.0031 11.7514L9.52031 15.1123Z" fill="currentColor"/>
  </symbol>

  <symbol viewBox="0 0 24 24" id="reddit">
   <path fill-rule="evenodd" clip-rule="evenodd" d="M24 12C24 18.6274 18.6274 24 12 24C5.37258 24 0 18.6274 0 12C0 5.37258 5.37258 0 12 0C18.6274 0 24 5.37258 24 12ZM18.2456 10.2456C19.214 10.2456 20 11.0316 20 12C20 12.7158 19.5649 13.3333 18.9895 13.614C19.0176 13.7824 19.0316 13.9509 19.0316 14.1333C19.0316 16.828 15.9018 19.0035 12.0281 19.0035C8.15439 19.0035 5.02457 16.828 5.02457 14.1333C5.02457 13.9509 5.0386 13.7684 5.06667 13.6C4.44913 13.3193 4.02808 12.7158 4.02808 12C4.02808 11.0316 4.81404 10.2456 5.78246 10.2456C6.24562 10.2456 6.68071 10.4421 6.98948 10.7368C8.1965 9.85261 9.86667 9.30524 11.7333 9.2491L12.6176 5.06664C12.6456 4.98243 12.6877 4.91226 12.7579 4.87015C12.8281 4.82805 12.9123 4.81401 12.9965 4.82805L15.9018 5.44559C16.0983 5.02454 16.5193 4.74384 17.0105 4.74384C17.6983 4.74384 18.2597 5.30524 18.2597 5.99296C18.2597 6.68068 17.6983 7.24208 17.0105 7.24208C16.3369 7.24208 15.7895 6.70875 15.7614 6.0491L13.1649 5.50173L12.3649 9.2491C14.1895 9.31928 15.8456 9.88068 17.0386 10.7368C17.3474 10.428 17.7684 10.2456 18.2456 10.2456ZM9.24913 12C8.56141 12 8.00001 12.5614 8.00001 13.2491C8.00001 13.9368 8.56141 14.4982 9.24913 14.4982C9.93685 14.4982 10.4983 13.9368 10.4983 13.2491C10.4983 12.5614 9.93685 12 9.24913 12ZM12.014 17.4596C12.4912 17.4596 14.1193 17.4035 14.9754 16.5473C15.1018 16.421 15.1018 16.2245 15.0035 16.0842C14.8772 15.9579 14.6667 15.9579 14.5404 16.0842C13.993 16.6175 12.8561 16.814 12.0281 16.814C11.2 16.814 10.0491 16.6175 9.5158 16.0842C9.38948 15.9579 9.17895 15.9579 9.05264 16.0842C8.92632 16.2105 8.92632 16.421 9.05264 16.5473C9.89474 17.3895 11.5368 17.4596 12.014 17.4596ZM13.5018 13.2491C13.5018 13.9368 14.0632 14.4982 14.7509 14.4982C15.4386 14.4982 16 13.9368 16 13.2491C16 12.5614 15.4386 12 14.7509 12C14.0632 12 13.5018 12.5614 13.5018 13.2491Z" fill="currentColor"/>
  </symbol>

  <symbol viewBox="0 0 24 24" id="rss">
    <circle cx="12" cy="12" r="12" fill="currentColor"/>
    <path d="M9.90593 15.39C9.90593 14.5196 9.18027 13.8114 8.28832 13.8114C7.39627 13.8114 6.67053 14.5196 6.67053 15.39C6.67053 16.2602 7.39627 16.9682 8.28832 16.9682C9.18027 16.9682 9.90593 16.2602 9.90593 15.39Z" fill="white"/>
    <path d="M6.8525 12.0304C8.15047 12.0304 9.37119 12.5257 10.2897 13.4251C11.2083 14.3259 11.7142 15.5255 11.7142 16.8027C11.7142 16.9 11.795 16.9788 11.8947 16.9788H13.9696C14.0693 16.9788 14.1501 16.9 14.1501 16.8027C14.1501 12.8605 10.8764 9.65332 6.85247 9.65332C6.75277 9.65332 6.672 9.73213 6.672 9.82939V11.8543C6.67203 11.9516 6.75285 12.0304 6.8525 12.0304Z" fill="white"/>
    <path d="M6.8554 6.06445C6.7557 6.06445 6.67493 6.14326 6.67493 6.24052V8.26511C6.67493 8.36237 6.7557 8.44118 6.8554 8.44118C11.5562 8.44118 15.3807 12.1929 15.3807 16.8045C15.3807 16.9018 15.4615 16.9806 15.5611 16.9806H17.6355C17.7352 16.9806 17.816 16.9018 17.816 16.8045C17.816 10.8824 12.8991 6.06445 6.8554 6.06445Z" fill="white"/>
  </symbol>

  <symbol  viewBox="0 0 24 24" id="telegram-black">
    <path fill-rule="evenodd" clip-rule="evenodd" d="M24 12C24 18.6274 18.6274 24 12 24C5.37258 24 0 18.6274 0 12C0 5.37258 5.37258 0 12 0C18.6274 0 24 5.37258 24 12ZM12.4301 8.85893C11.263 9.3444 8.93026 10.3492 5.43201 11.8733C4.86395 12.0992 4.56638 12.3202 4.53929 12.5363C4.49351 12.9015 4.95084 13.0453 5.5736 13.2411C5.65831 13.2678 5.74608 13.2954 5.83606 13.3246C6.44876 13.5238 7.27295 13.7568 7.70141 13.766C8.09007 13.7744 8.52385 13.6142 9.00276 13.2853C12.2713 11.079 13.9585 9.96381 14.0644 9.93977C14.1392 9.92281 14.2427 9.90148 14.3129 9.96385C14.3831 10.0262 14.3762 10.1443 14.3687 10.176C14.3234 10.3691 12.5282 12.0381 11.5992 12.9018C11.3096 13.171 11.1042 13.362 11.0622 13.4056C10.9681 13.5033 10.8722 13.5958 10.7801 13.6846C10.2109 14.2333 9.78403 14.6448 10.8037 15.3168C11.2937 15.6397 11.6859 15.9067 12.077 16.1731C12.5043 16.4641 12.9304 16.7543 13.4817 17.1157C13.6222 17.2077 13.7563 17.3034 13.887 17.3965C14.3842 17.751 14.8309 18.0694 15.3827 18.0186C15.7034 17.9891 16.0346 17.6876 16.2028 16.7884C16.6003 14.6631 17.3818 10.0585 17.5623 8.16097C17.5782 7.99473 17.5583 7.78197 17.5423 7.68857C17.5263 7.59518 17.4929 7.46211 17.3715 7.3636C17.2277 7.24694 17.0058 7.22234 16.9065 7.22408C16.4551 7.23203 15.7627 7.47282 12.4301 8.85893Z" fill="currentColor"></path>
  </symbol>

  <symbol fill="white" viewBox="0 0 22 24" id="viber-black">
    <path d="M21.3625 5.29925C20.9532 3.84411 20.143 2.69467 18.9562 1.88151C17.4585 0.852315 15.7356 0.489549 14.2481 0.267406C12.1897 -0.0382949 10.3257 -0.081093 8.54765 0.134936C6.88211 0.338737 5.62784 0.662779 4.48406 1.18655C2.24152 2.2137 0.895175 3.87468 0.483906 6.1226C0.283387 7.21497 0.148343 8.20137 0.0705908 9.14293C-0.109467 11.3195 0.0542219 13.2454 0.569843 15.0307C1.07319 16.7712 1.95097 18.0144 3.25435 18.8316C3.58582 19.0395 4.01141 19.1903 4.42268 19.335C4.65593 19.4165 4.88305 19.496 5.06925 19.5836C5.24112 19.6631 5.24112 19.6774 5.23908 19.82C5.22475 21.0571 5.23908 23.4823 5.23908 23.4823L5.24317 24H6.1762L6.32761 23.8533C6.42787 23.7595 8.73998 21.534 9.56457 20.6373L9.6771 20.513C9.81828 20.3499 9.81828 20.3499 9.96356 20.3479C11.0766 20.3255 12.2143 20.2827 13.3437 20.2215C14.7126 20.1482 16.2983 20.0157 17.792 19.3961C19.1588 18.8275 20.1573 17.9247 20.7568 16.7141C21.3829 15.4506 21.7533 14.0831 21.8924 12.5321C22.1379 9.80528 21.964 7.43915 21.3625 5.29925ZM16.4395 15.903C16.0958 16.4594 15.5842 16.8466 14.9806 17.0973C14.5387 17.2807 14.0885 17.242 13.6527 17.0585C10.0045 15.5199 7.14197 13.0967 5.25135 9.61167C4.86055 8.89429 4.59046 8.1117 4.27945 7.35356C4.21602 7.19867 4.22011 7.01525 4.19147 6.84406C4.21807 5.61921 5.16133 4.92833 6.11481 4.72045C6.47902 4.63893 6.80231 4.76733 7.0724 5.02615C7.82128 5.73538 8.4126 6.56077 8.85866 7.48603C9.05304 7.89159 8.96505 8.25028 8.63358 8.5519C8.56402 8.61508 8.4924 8.67215 8.41669 8.72921C7.65963 9.29578 7.54914 9.7258 7.95223 10.5797C8.63972 12.0328 9.78145 13.009 11.2567 13.6143C11.6455 13.7733 12.0117 13.6938 12.3084 13.3799C12.3493 13.3392 12.3943 13.2984 12.423 13.2495C13.0041 12.2835 13.8491 12.3793 14.6287 12.9295C15.1402 13.2923 15.6374 13.6755 16.1428 14.0443C16.9142 14.6089 16.9081 15.1387 16.4395 15.903ZM11.6005 6.26119C11.4286 6.26119 11.2567 6.27545 11.0869 6.30398C10.8004 6.35086 10.5324 6.15929 10.4833 5.87396C10.4362 5.59068 10.6285 5.32166 10.915 5.27479C11.1401 5.23607 11.3713 5.21773 11.6005 5.21773C13.8696 5.21773 15.7152 7.05601 15.7152 9.31616C15.7152 9.54645 15.6968 9.77675 15.6579 9.99889C15.6149 10.2536 15.3939 10.435 15.1423 10.435C15.1136 10.435 15.085 10.433 15.0543 10.4269C14.7699 10.38 14.5775 10.111 14.6246 9.8277C14.6533 9.66058 14.6676 9.48939 14.6676 9.31616C14.6676 7.63276 13.2905 6.26119 11.6005 6.26119ZM14.1438 9.39156C14.1438 9.67892 13.9085 9.91329 13.62 9.91329C13.3315 9.91329 13.0962 9.67892 13.0962 9.39156C13.0962 8.52949 12.3903 7.82638 11.5247 7.82638C11.2362 7.82638 11.0009 7.592 11.0009 7.30465C11.0009 7.01729 11.2362 6.78292 11.5247 6.78292C12.9693 6.78292 14.1438 7.95273 14.1438 9.39156ZM17.1352 10.5512C17.0799 10.7937 16.8631 10.9568 16.6237 10.9568C16.5848 10.9568 16.5459 10.9527 16.507 10.9445C16.2247 10.8793 16.0487 10.6001 16.1121 10.3189C16.1878 9.98666 16.2267 9.64224 16.2267 9.29578C16.2267 6.7605 14.154 4.696 11.6086 4.696C11.2608 4.696 10.915 4.73472 10.5815 4.81012C10.2991 4.87534 10.0188 4.69803 9.95537 4.41679C9.8899 4.13554 10.0679 3.85634 10.3503 3.79316C10.7595 3.69941 11.183 3.65254 11.6086 3.65254C14.7331 3.65254 17.2743 6.18374 17.2743 9.29578C17.2743 9.71968 17.2273 10.1416 17.1352 10.5512Z" fill="currentColor"></path>
  </symbol>
  
  <symbol viewBox="0 0 24 24" id="blinger">
    <path  d="M15 19C15 20.1046 14.1046 21 13 21C11.8954 21 11 20.1046 11 19C11 17.8954 11.8954 17 13 17C14.1046 17 15 17.8954 15 19ZM15 19H16C18.2091 19 20 17.2091 20 15M20 15V10C20 6.13401 16.866 3 13 3H11C7.13401 3 4 6.13401 4 10V16M20 15H18C16.8954 15 16 14.1046 16 13V11C16 9.89543 16.8954 9 18 9H20M4 9H6C7.10457 9 8 9.89543 8 11V13C8 14.1046 7.10457 15 6 15H4" fill="none" stroke="currentColor" stroke-width="2"/>
  </symbol>

  <symbol viewBox="0 0 24 24" id="tiktok">
    <path d="M12.5311 0.02025C13.8398 0 15.1411 0.012 16.4408 0C16.5196 1.53075 17.0701 3.09 18.1906 4.17225C19.3088 5.2815 20.8906 5.78925 22.4296 5.961V9.98775C20.9873 9.9405 19.5383 9.6405 18.2296 9.0195C17.6596 8.7615 17.1286 8.42925 16.6088 8.0895C16.6021 11.0115 16.6208 13.9297 16.5901 16.8397C16.5121 18.2377 16.0508 19.629 15.2378 20.781C13.9298 22.6987 11.6596 23.949 9.32781 23.988C7.89756 24.0697 6.46881 23.6798 5.25006 22.9613C3.23031 21.7703 1.80906 19.59 1.60206 17.25C1.57806 16.7498 1.56981 16.2502 1.59006 15.762C1.77006 13.8593 2.71131 12.039 4.17231 10.8007C5.82831 9.3585 8.14806 8.6715 10.3201 9.078C10.3403 10.5592 10.2811 12.039 10.2811 13.5203C9.28881 13.1993 8.12931 13.2892 7.26231 13.8915C6.62931 14.3017 6.14856 14.9302 5.89806 15.6412C5.69106 16.1483 5.75031 16.7115 5.76231 17.25C6.00006 18.891 7.57806 20.2702 9.26256 20.121C10.3793 20.109 11.4496 19.461 12.0316 18.5123C12.2198 18.18 12.4306 17.8403 12.4418 17.4495C12.5401 15.6608 12.5011 13.8795 12.5131 12.0907C12.5213 8.0595 12.5011 4.0395 12.5318 0.021L12.5311 0.02025Z" fill="currentColor"></path>
  </symbol>
 
  <symbol viewBox="0 0 24 24" id="line_chartUp">
    <path d="M3 3V20C3 20.553 3.447 21 4 21H21V19H5V3H3Z" fill="currentColor"/>
    <path d="M14.7702 14.0984C15.15 14.4702 15.7638 14.4702 16.1436 14.0984L21 9.34443L19.6266 8L15.4569 12.0818L13.2298 9.90159C12.85 9.52983 12.2362 9.52983 11.8564 9.90159L7 14.6556L8.37339 16L12.5431 11.9182L14.7702 14.0984Z" fill="currentColor"/>
  </symbol>

   <symbol viewBox="0 0 24 24" id="user_plus">
    <path fill-rule="evenodd" clip-rule="evenodd" d="M12 8C12 10.2091 10.2091 12 8 12C5.79086 12 4 10.2091 4 8C4 5.79086 5.79086 4 8 4C10.2091 4 12 5.79086 12 8ZM10 8C10 9.10457 9.10457 10 8 10C6.89543 10 6 9.10457 6 8C6 6.89543 6.89543 6 8 6C9.10457 6 10 6.89543 10 8Z" fill="currentColor"/>
    <path d="M17 8H19V11H22V13H19V16H17V13H14V11H17V8Z" fill="currentColor"/>
    <path d="M12 19H14C14 15.6863 11.3137 13 8 13C4.68629 13 2 15.6863 2 19H4C4 16.7909 5.79086 15 8 15C10.2091 15 12 16.7909 12 19Z" fill="currentColor"/>
  </symbol>

   <symbol viewBox="0 0 24 24" id="credit_card">
    <path d="M20 4H4C2.897 4 2 4.897 2 6V18C2 19.103 2.897 20 4 20H20C21.103 20 22 19.103 22 18V6C22 4.897 21.103 4 20 4ZM4 6H20V8H4V6ZM4 18V12H20.001L20.002 18H4Z" fill="currentColor"/>
    <path d="M6 14H13V16H6V14Z" fill="currentColor"/>
  </symbol>

  <symbol viewBox="0 0 16 16" id="chevron_duo_down">
    <path d="M8.00002 12.2831L3.99308 8.27614L4.93589 7.33333L8.00002 10.3975L11.0641 7.33333L12.007 8.27614L8.00002 12.2831Z" fill="currentColor"></path>
    <path d="M8.00002 8.66667L3.99308 4.65973L4.93589 3.71692L8.00002 6.78105L11.0641 3.71692L12.007 4.65973L8.00002 8.66667Z" fill="currentColor"></path>
  </symbol>

  <symbol fill="none" viewBox="0 0 16 16" id="search">
    <path d="M7.66671 14C11.1645 14 14 11.1645 14 7.66667C14 4.16887 11.1645 1.33334 7.66671 1.33334C4.1689 1.33334 1.33337 4.16887 1.33337 7.66667C1.33337 11.1645 4.1689 14 7.66671 14Z" stroke="currentColor" stroke-width="1.5" stroke-linecap="round" stroke-linejoin="round"></path>
    <path d="M14.6667 14.6667L13.3334 13.3333" stroke="currentColor" stroke-width="1.5" stroke-linecap="round" stroke-linejoin="round"></path>
  </symbol>

  <symbol fill="none" viewBox="0 0 24 24" id="bank">
    <path d="M12.37 2.14984L21.37 5.74982C21.72 5.88982 22 6.30981 22 6.67981V9.99982C22 10.5498 21.55 10.9998 21 10.9998H3C2.45 10.9998 2 10.5498 2 9.99982V6.67981C2 6.30981 2.28 5.88982 2.63 5.74982L11.63 2.14984C11.83 2.06984 12.17 2.06984 12.37 2.14984Z" stroke="currentColor" stroke-miterlimit="10" stroke-linecap="round" stroke-linejoin="round"></path>
    <path d="M22 22H2V19C2 18.45 2.45 18 3 18H21C21.55 18 22 18.45 22 19V22Z" stroke="currentColor" stroke-miterlimit="10" stroke-linecap="round" stroke-linejoin="round"></path>
    <path d="M4 18V11" stroke="currentColor" stroke-miterlimit="10" stroke-linecap="round" stroke-linejoin="round"></path>
    <path d="M8 18V11" stroke="currentColor" stroke-miterlimit="10" stroke-linecap="round" stroke-linejoin="round"></path>
    <path d="M12 18V11" stroke="currentColor" stroke-miterlimit="10" stroke-linecap="round" stroke-linejoin="round"></path>
    <path d="M16 18V11" stroke="currentColor" stroke-miterlimit="10" stroke-linecap="round" stroke-linejoin="round"></path>
    <path d="M20 18V11" stroke="currentColor" stroke-miterlimit="10" stroke-linecap="round" stroke-linejoin="round"></path>
    <path d="M1 22H23" stroke="currentColor" stroke-miterlimit="10" stroke-linecap="round" stroke-linejoin="round"></path>
    <path d="M12 8.5C12.8284 8.5 13.5 7.82843 13.5 7C13.5 6.17157 12.8284 5.5 12 5.5C11.1716 5.5 10.5 6.17157 10.5 7C10.5 7.82843 11.1716 8.5 12 8.5Z" stroke="currentColor" stroke-miterlimit="10" stroke-linecap="round" stroke-linejoin="round"></path>
  </symbol>

  <symbol fill="none" viewBox="0 0 24 24" id="language-square">
    <path d="M16.99 8.96045H7.01001" stroke="currentColor" stroke-linecap="round" stroke-linejoin="round"></path>
    <path d="M12 7.28027V8.96027" stroke="currentColor" stroke-linecap="round" stroke-linejoin="round"></path>
    <path d="M14.5 8.94043C14.5 13.2404 11.14 16.7204 7 16.7204" stroke="currentColor" stroke-linecap="round" stroke-linejoin="round"></path>
    <path d="M16.9999 16.72C15.1999 16.72 13.6 15.76 12.45 14.25" stroke="currentColor" stroke-linecap="round" stroke-linejoin="round"></path>
    <path d="M9 22H15C20 22 22 20 22 15V9C22 4 20 2 15 2H9C4 2 2 4 2 9V15C2 20 4 22 9 22Z" stroke="currentColor" stroke-linecap="round" stroke-linejoin="round"></path>
  </symbol>
</svg>
