<svg xmlns="http://www.w3.org/2000/svg">
  <symbol viewBox="0 0 24 24" id="hat">
    <path d="M12 4.88208L22.236 10.0001L19 11.6181V14.0001C19 16.7615 16.7614 19.0001 14 19.0001H9.99998C7.23856 19.0001 4.99998 16.7615 4.99998 14.0001V11.6181L1.76392 10.0001L12 4.88208ZM6.99998 12.6181V14.0001C6.99998 15.657 8.34313 17.0001 9.99998 17.0001H14C15.6568 17.0001 17 15.657 17 14.0001V12.6181L12 15.1181L6.99998 12.6181ZM6.23605 10.0001L12 12.8821L17.7639 10.0001L12 7.11815L6.23605 10.0001Z"/>
  </symbol>
  <symbol viewBox="0 0 24 24" id="chain">
    <path fill-rule="evenodd" clip-rule="evenodd" d="M3 5H11V16H3V5ZM5 7V14H9V7H5Z"/>
    <path d="M8 3H6V5H8V3Z"/>
    <path d="M8 16H6V18H8V16Z"/>
    <path fill-rule="evenodd" clip-rule="evenodd" d="M13 9H21V19H13V9ZM15 11V17H19V11H15Z"/>
    <path d="M18 7H16V9H18V7Z"/>
    <path d="M18 19H16V21H18V19Z"/>
  </symbol>
  <symbol viewBox="0 0 24 24" id="graph">
    <path fill-rule="evenodd" clip-rule="evenodd" d="M3 10H11V21H3V10ZM5 12V19H9V12H5Z"/>
    <path fill-rule="evenodd" clip-rule="evenodd" d="M13 3H21V21H13V3ZM15 5V19H19V5H15Z"/>
  </symbol>
  <symbol viewBox="0 0 24 24" id="gold">
    <path d="M20.9892 18.9924C20.9892 18.9557 20.0671 12.2662 20.0671 12.2662C20.0304 11.8805 19.7218 11.6123 19.3361 11.6123H16.4524L15.6479 5.65388C15.6111 5.26817 15.3026 5 14.9169 5H8.99516C8.64985 5 8.30454 5.26817 8.26414 5.65388L7.47066 11.6123H4.61267C4.26736 11.6123 3.92205 11.8805 3.88164 12.2662L3 18.9152C3 19.1467 3.09184 19.7675 3.76776 19.8006H11.4931C11.7025 19.8006 11.8972 19.7161 12.0258 19.5691C12.1727 19.7344 12.3564 19.8006 12.5695 19.8006H20.2949C20.721 19.7969 21.0663 19.4516 20.9892 18.9924ZM9.72619 6.53553H14.3401L15.0271 11.6086H9.03925L9.72619 6.53553ZM4.61267 18.2981L5.30329 13.1846H9.91721L10.6078 18.2981H4.61267ZM11.9817 17.5671L11.3903 13.1882H12.5658L11.9817 17.5671ZM13.4181 18.2981L14.1491 13.1846H18.7593L19.4132 18.2981H13.4181Z" stroke="black" stroke-width="0.2"/>
  </symbol>
  <symbol viewBox="0 0 24 24" id="dollar">
    <path fill-rule="evenodd" clip-rule="evenodd" d="M12 19C15.866 19 19 15.866 19 12C19 8.13401 15.866 5 12 5C8.13401 5 5 8.13401 5 12C5 15.866 8.13401 19 12 19ZM12 21C16.9706 21 21 16.9706 21 12C21 7.02944 16.9706 3 12 3C7.02944 3 3 7.02944 3 12C3 16.9706 7.02944 21 12 21Z"/>
    <path d="M12.5715 17V15.6309C13.3793 15.4929 13.9859 15.2006 14.3913 14.7539C14.7967 14.3072 14.9995 13.7763 14.9997 13.1612C15.0078 12.5485 14.8376 12.0388 14.4892 11.632C14.1409 11.2252 13.566 10.8821 12.7647 10.6029C12.1688 10.3973 11.739 10.2063 11.4753 10.0296C11.2116 9.853 11.0823 9.65853 11.0876 9.44618C11.0813 9.24715 11.1655 9.0702 11.3401 8.91532C11.5147 8.76043 11.8175 8.67874 12.2486 8.67022C12.775 8.67988 13.2004 8.7389 13.5247 8.84728C13.849 8.95568 14.0915 9.05551 14.2522 9.14681L14.6457 7.62367C14.4249 7.51299 14.1562 7.4157 13.8399 7.33185C13.5235 7.24798 13.144 7.19768 12.7014 7.18089V6H11.3793V7.27481C10.6338 7.41678 10.0651 7.69972 9.67319 8.12358C9.28132 8.54745 9.0839 9.06543 9.08097 9.67751C9.09135 10.3282 9.30994 10.847 9.73674 11.234C10.1635 11.6209 10.7362 11.9322 11.4546 12.1678C11.9603 12.3337 12.3428 12.5089 12.6023 12.6934C12.8618 12.878 12.992 13.0974 12.9931 13.3517C12.9834 13.6191 12.8469 13.826 12.5838 13.9726C12.3207 14.1192 11.9891 14.1934 11.5892 14.1954C11.1522 14.19 10.7469 14.1294 10.3733 14.0134C9.99969 13.8974 9.67385 13.7585 9.39576 13.5967L9 15.1656C9.23744 15.3091 9.555 15.4342 9.9527 15.5412C10.3504 15.6481 10.7793 15.7134 11.2393 15.7372V17H12.5715Z"/>
  </symbol>
  <symbol viewBox="0 0 24 24" id="graphSell">
    <path d="M5.736 22.1351C7.158 22.1351 8.13 21.4151 8.13 20.1641C8.13 18.8411 7.095 18.4811 6.123 18.1931C5.268 17.9411 5.043 17.7881 5.043 17.5091C5.043 17.2841 5.232 17.0951 5.628 17.0951C6.087 17.0951 6.411 17.3291 6.609 17.7971L7.959 17.0051C7.518 16.0601 6.663 15.5651 5.619 15.5651C4.395 15.5651 3.432 16.3391 3.432 17.5181C3.432 18.6971 4.314 19.2011 5.304 19.4891C6.105 19.7141 6.519 19.8221 6.519 20.1821C6.519 20.3981 6.348 20.6051 5.781 20.6051C5.151 20.6051 4.764 20.3081 4.539 19.7681L3.162 20.5691C3.495 21.4961 4.368 22.1351 5.736 22.1351ZM10.3267 20.4881V19.5611H12.4957V18.0761H10.3267V17.2031H12.7207V15.7001H8.7157V22.0001H12.7657V20.4881H10.3267ZM15.1431 20.4431V15.7001H13.5321V22.0001H17.3121V20.4431H15.1431ZM19.5113 20.4431V15.7001H17.9003V22.0001H21.6803V20.4431H19.5113Z"/>
    <path fill-rule="evenodd" clip-rule="evenodd" d="M21.2071 5.20717L13.5672 12.8471L8.13378 8.40158L3.76822 13.6403L2.23178 12.3599L7.86622 5.59854L13.4328 10.1531L19.7929 3.79296L21.2071 5.20717Z"/>
    <path d="M18.4723 3.52303L22 2.50006L21.9493 5.95418L18.4723 3.52303Z"/>
  </symbol>
  <symbol viewBox="0 0 24 24" id="coins">
    <path d="M13.6667 3.66669H10.3334C5.73059 3.66669 2 7.39727 2 12C2 16.6027 5.73059 20.3333 10.3333 20.3333H13.6666C18.2694 20.3333 22 16.6027 22 12C22 7.39727 18.2694 3.66669 13.6667 3.66669ZM8.25289 18.3357C5.58961 17.4619 3.66668 14.9558 3.66668 12C3.66668 9.04423 5.58961 6.53813 8.25289 5.6643C8.24668 5.66962 8.24063 5.67516 8.23445 5.68052C8.20094 5.70934 8.16789 5.73864 8.13484 5.76802C8.11531 5.78536 8.09559 5.80251 8.07625 5.82001C8.03793 5.85469 8.0002 5.88993 7.96254 5.92528C7.94895 5.93805 7.93512 5.95052 7.92164 5.96337C7.87078 6.01177 7.82055 6.06083 7.77094 6.11048C7.75965 6.12177 7.74871 6.13337 7.7375 6.14469C7.69934 6.18333 7.66133 6.22216 7.62391 6.26153C7.60629 6.28009 7.58906 6.29899 7.5716 6.31774C7.54113 6.3504 7.51066 6.38313 7.48074 6.4163C7.46164 6.43743 7.44289 6.45891 7.42402 6.48024C7.39625 6.51165 7.36852 6.54313 7.34117 6.57493C7.32187 6.59743 7.30285 6.62012 7.28379 6.64282C7.2575 6.67411 7.23137 6.70548 7.20555 6.73716C7.18645 6.76059 7.16754 6.78415 7.14867 6.80778C7.1234 6.83946 7.09836 6.8713 7.07355 6.90337C7.05508 6.92723 7.03668 6.95118 7.01844 6.97524C6.99375 7.00786 6.96941 7.04071 6.9452 7.07372C6.92762 7.0977 6.91 7.12161 6.89266 7.14579C6.86816 7.17993 6.8441 7.21438 6.82012 7.24887C6.80383 7.27231 6.78738 7.29567 6.77133 7.31927C6.74602 7.35649 6.72125 7.39411 6.69652 7.43176C6.68254 7.45309 6.66824 7.47423 6.65445 7.49571C6.62449 7.54227 6.5952 7.58934 6.56613 7.63653C6.55816 7.64946 6.54992 7.66219 6.54199 7.6752C6.50531 7.73552 6.46938 7.79634 6.43418 7.85766C6.42457 7.87442 6.41535 7.89149 6.40586 7.90833C6.38059 7.95313 6.35539 7.99798 6.3309 8.04329C6.31828 8.06661 6.30617 8.0902 6.29375 8.11368C6.27301 8.15294 6.2523 8.19219 6.23219 8.23184C6.21906 8.25774 6.20629 8.28384 6.1934 8.30989C6.17477 8.34759 6.15621 8.38536 6.13809 8.42337C6.12512 8.45059 6.11246 8.47798 6.0998 8.50536C6.0825 8.54274 6.06539 8.58024 6.04863 8.61798C6.03621 8.64594 6.02395 8.67403 6.0118 8.70216C5.99555 8.73985 5.97957 8.77766 5.96387 8.81563C5.95215 8.84395 5.94051 8.87227 5.9291 8.90075C5.91363 8.93934 5.89859 8.97813 5.88367 9.017C5.87289 9.04512 5.86207 9.07321 5.85156 9.10145C5.8366 9.14177 5.82219 9.18235 5.80785 9.22298C5.79828 9.25009 5.78852 9.27708 5.77922 9.30434C5.76414 9.34852 5.74973 9.39305 5.73535 9.43755C5.72762 9.46149 5.71957 9.48532 5.71203 9.50938C5.69348 9.56868 5.67574 9.62833 5.65852 9.68821C5.65578 9.69766 5.65277 9.70704 5.65008 9.71653C5.63035 9.78598 5.61152 9.85587 5.59355 9.92602C5.58809 9.94743 5.58313 9.96903 5.57781 9.99048C5.5657 10.0394 5.55367 10.0884 5.54242 10.1377C5.53617 10.165 5.53047 10.1925 5.52449 10.22C5.51496 10.2638 5.50551 10.3076 5.49664 10.3516C5.4907 10.3813 5.4852 10.411 5.47957 10.4408C5.47156 10.4831 5.46371 10.5254 5.45633 10.5678C5.45098 10.5986 5.44598 10.6296 5.44098 10.6606C5.43422 10.7024 5.4277 10.7442 5.42156 10.7862C5.41699 10.8176 5.41258 10.8491 5.40836 10.8806C5.4027 10.9228 5.39742 10.9651 5.39238 11.0075C5.38867 11.0389 5.385 11.0703 5.3816 11.1018C5.37699 11.1449 5.37285 11.1882 5.36891 11.2315C5.36609 11.2624 5.36316 11.2933 5.36066 11.3243C5.35703 11.3695 5.3541 11.4147 5.35117 11.46C5.3493 11.4894 5.34715 11.5188 5.34559 11.5482C5.34289 11.5984 5.34105 11.6488 5.33926 11.6993C5.3384 11.724 5.33711 11.7486 5.33645 11.7734C5.33441 11.8488 5.33328 11.9243 5.33328 12.0001C5.33328 12.0759 5.33441 12.1515 5.33645 12.2268C5.33711 12.2516 5.3384 12.2762 5.33926 12.3009C5.34105 12.3514 5.34289 12.4018 5.34559 12.452C5.34715 12.4815 5.3493 12.5108 5.35117 12.5402C5.35406 12.5855 5.35703 12.6308 5.36066 12.6759C5.36316 12.7069 5.36609 12.7378 5.36891 12.7688C5.37285 12.8121 5.37699 12.8554 5.3816 12.8985C5.38496 12.93 5.38863 12.9614 5.39238 12.9928C5.39742 13.0352 5.4027 13.0774 5.40836 13.1196C5.41258 13.1511 5.41699 13.1826 5.42156 13.214C5.4277 13.256 5.43422 13.2979 5.44098 13.3397C5.44598 13.3706 5.45098 13.4016 5.45633 13.4324C5.46367 13.4749 5.47156 13.5172 5.47957 13.5595C5.4852 13.5892 5.4907 13.619 5.49664 13.6486C5.50547 13.6927 5.51496 13.7365 5.52449 13.7802C5.53047 13.8077 5.53617 13.8352 5.54242 13.8626C5.55367 13.9118 5.5657 13.9608 5.57781 14.0098C5.58313 14.0312 5.58805 14.0529 5.59355 14.0742C5.61152 14.1444 5.63031 14.2143 5.65008 14.2837C5.65277 14.2932 5.65578 14.3025 5.65852 14.312C5.67578 14.3719 5.69352 14.4316 5.71203 14.4909C5.71957 14.5149 5.72762 14.5387 5.73535 14.5627C5.74973 14.6072 5.76414 14.6517 5.77922 14.6959C5.78852 14.7231 5.79828 14.7502 5.80785 14.7773C5.82219 14.8179 5.8366 14.8585 5.85156 14.8988C5.86207 14.9271 5.87289 14.9552 5.88371 14.9833C5.89859 15.0222 5.91363 15.0609 5.9291 15.0995C5.94051 15.128 5.95219 15.1563 5.96391 15.1847C5.97961 15.2227 5.99559 15.2605 6.01184 15.2982C6.02398 15.3263 6.03621 15.3544 6.04867 15.3824C6.06543 15.42 6.08254 15.4575 6.09984 15.4949C6.11254 15.5224 6.1252 15.5497 6.13816 15.577C6.15625 15.615 6.17477 15.6527 6.1934 15.6904C6.20629 15.7164 6.21906 15.7425 6.23223 15.7685C6.25234 15.8081 6.27305 15.8474 6.29379 15.8866C6.30617 15.9101 6.31832 15.9337 6.33094 15.957C6.35539 16.0022 6.38051 16.047 6.40574 16.0917C6.41531 16.1086 6.42453 16.1258 6.43422 16.1427C6.46941 16.204 6.50531 16.2648 6.54199 16.3251C6.54988 16.3381 6.55816 16.3508 6.56613 16.3638C6.5952 16.4109 6.62449 16.458 6.65445 16.5046C6.66828 16.5261 6.68258 16.5472 6.6966 16.5686C6.72129 16.6062 6.74602 16.6438 6.77129 16.6809C6.78738 16.7046 6.80383 16.728 6.82016 16.7515C6.84414 16.7859 6.86816 16.8204 6.89266 16.8545C6.91004 16.8786 6.92766 16.9026 6.94527 16.9266C6.96945 16.9595 6.99379 16.9924 7.01844 17.0249C7.03668 17.049 7.05512 17.073 7.07359 17.0969C7.0984 17.1289 7.1234 17.1607 7.14867 17.1924C7.16754 17.2161 7.18645 17.2396 7.20555 17.2631C7.23137 17.2947 7.25746 17.3261 7.28375 17.3574C7.30285 17.3801 7.32191 17.4028 7.34125 17.4254C7.36852 17.4572 7.39621 17.4886 7.42395 17.5199C7.44285 17.5413 7.46164 17.5628 7.48078 17.584C7.5107 17.6171 7.54109 17.6497 7.57152 17.6824C7.58902 17.7011 7.60633 17.7201 7.62402 17.7387C7.66125 17.7779 7.69906 17.8165 7.73703 17.855C7.74844 17.8665 7.75957 17.8783 7.77102 17.8898C7.82063 17.9394 7.87086 17.9884 7.92168 18.0368C7.93523 18.0497 7.9491 18.0623 7.96273 18.0751C8.00031 18.1104 8.03801 18.1456 8.07625 18.1802C8.0957 18.1978 8.11555 18.215 8.1352 18.2325C8.16813 18.2617 8.20109 18.2909 8.23449 18.3197C8.24062 18.3248 8.24664 18.3304 8.25289 18.3357ZM13.6667 18.6667C9.98441 18.6667 7 15.6823 7 12C7 8.31774 9.98441 5.33333 13.6667 5.33333C17.3489 5.33333 20.3333 8.31774 20.3333 12C20.3333 15.6823 17.3489 18.6667 13.6667 18.6667Z"/>
    <path d="M14.5 7.83331H11.1667C10.7065 7.83331 10.3334 8.2064 10.3334 8.66663V15.3333C10.3334 15.7935 10.7065 16.1666 11.1667 16.1666H14.5C15.8769 16.1666 17 15.0435 17 13.6666C17 13.0273 16.7576 12.4428 16.3603 12C16.7576 11.5571 17 10.9727 17 10.3333C17 8.95644 15.8769 7.83331 14.5 7.83331ZM15.3333 10.3333C15.3333 10.7898 14.9564 11.1666 14.5 11.1666H12V9.49999H14.5C14.9565 9.49999 15.3333 9.87691 15.3333 10.3333ZM14.5 14.5H12V12.8333H14.5C14.9565 12.8333 15.3333 13.2102 15.3333 13.6666C15.3333 14.1231 14.9565 14.5 14.5 14.5Z"/>
  </symbol>
  <symbol viewBox="0 0 24 24" id="graph2">
    <path fill-rule="evenodd" clip-rule="evenodd" d="M5 3H3V20C3 20.5523 3.44772 21 4 21H21V19L5 19V3Z"/>
    <path fill-rule="evenodd" clip-rule="evenodd" d="M11 11H9V15H11V11ZM7 9V17H13V9H7Z"/>
    <path fill-rule="evenodd" clip-rule="evenodd" d="M18 7H16V15H18V7ZM14 5V17H20V5H14Z"/>
  </symbol>
  <symbol viewBox="0 0 24 24" id="graph3">
    <path fill-rule="evenodd" clip-rule="evenodd" d="M9.42308 11.3846L6.92308 17.3846L5.07692 16.6154L7.57692 10.6154L9.42308 11.3846Z"/>
    <path fill-rule="evenodd" clip-rule="evenodd" d="M14.3356 15.7474L9.83564 11.7474L11.1644 10.2526L15.6644 14.2526L14.3356 15.7474Z"/>
    <path fill-rule="evenodd" clip-rule="evenodd" d="M19.4662 6.75766L17.4662 14.2577L15.5338 13.7423L17.5338 6.24234L19.4662 6.75766Z"/>
    <path fill-rule="evenodd" clip-rule="evenodd" d="M2 19C2 17.3431 3.34314 16 5 16C6.65686 16 8 17.3431 8 19C8 20.6569 6.65686 22 5 22C3.34314 22 2 20.6569 2 19ZM5 18C4.44771 18 4 18.4477 4 19C4 19.5523 4.44771 20 5 20C5.55229 20 6 19.5523 6 19C6 18.4477 5.55229 18 5 18Z"/>
    <path fill-rule="evenodd" clip-rule="evenodd" d="M6 10C6 8.34314 7.34314 7 9 7C10.6569 7 12 8.34314 12 10C12 11.6569 10.6569 13 9 13C7.34314 13 6 11.6569 6 10ZM9 9C8.44771 9 8 9.44771 8 10C8 10.5523 8.44771 11 9 11C9.55229 11 10 10.5523 10 10C10 9.44771 9.55229 9 9 9Z"/>
    <path fill-rule="evenodd" clip-rule="evenodd" d="M13 16C13 14.3431 14.3431 13 16 13C17.6569 13 19 14.3431 19 16C19 17.6569 17.6569 19 16 19C14.3431 19 13 17.6569 13 16ZM16 15C15.4477 15 15 15.4477 15 16C15 16.5523 15.4477 17 16 17C16.5523 17 17 16.5523 17 16C17 15.4477 16.5523 15 16 15Z"/>
    <path fill-rule="evenodd" clip-rule="evenodd" d="M16 5C16 3.34314 17.3431 2 19 2C20.6569 2 22 3.34314 22 5C22 6.65686 20.6569 8 19 8C17.3431 8 16 6.65686 16 5ZM19 4C18.4477 4 18 4.44771 18 5C18 5.55229 18.4477 6 19 6C19.5523 6 20 5.55229 20 5C20 4.44771 19.5523 4 19 4Z"/>
  </symbol> 
  <symbol viewBox="0 0 24 24" id="graph4">
    <path fill-rule="evenodd" clip-rule="evenodd" d="M5 3H3V20C3 20.5523 3.44772 21 4 21H21V19L5 19V3Z"/>
    <path d="M15 13H21V15H15V13Z"/>
    <path d="M15 7H21V9H15V7Z"/>
    <path d="M9 5H11V7H9V5Z"/>
    <path fill-rule="evenodd" clip-rule="evenodd" d="M11 9H9V13H11V9ZM7 7V15H13V7H7Z"/>
    <path d="M9 15H11V17H9V15Z"/>
  </symbol>
  <symbol viewBox="0 0 24 24" id="graph5">
    <path fill-rule="evenodd" clip-rule="evenodd" d="M9.00006 14H15.0001V22H9.00006V14ZM11.0001 16V20H13.0001V16H11.0001Z"/>
    <path fill-rule="evenodd" clip-rule="evenodd" d="M2.00006 12H8.00006V22H2.00006V12ZM4.00006 14V20H6.00006V14H4.00006Z"/>
    <path fill-rule="evenodd" clip-rule="evenodd" d="M16.0001 9.99997H22.0001V22H16.0001V9.99997ZM18.0001 12V20H20.0001V12H18.0001Z"/>
    <path fill-rule="evenodd" clip-rule="evenodd" d="M22.1197 3.28485L12.0157 11.2617L6.04853 6.78633L2.65856 9.75255L1.34155 8.24739L5.95158 4.21362L11.9844 8.73824L20.8804 1.71509L22.1197 3.28485Z"/>
  </symbol>
  <symbol viewBox="0 0 24 24" id="tv">
    <path d="M16.1666 3.66667L11.9999 7.83334L7.83325 3.66667" stroke="black" stroke-width="2" stroke-linecap="round" stroke-linejoin="round"/>
    <path fill-rule="evenodd" clip-rule="evenodd" d="M5.33341 8.83333C4.96522 8.83333 4.66675 9.1318 4.66675 9.49999V18.6667C4.66675 19.0349 4.96522 19.3333 5.33341 19.3333H18.6667C19.0349 19.3333 19.3334 19.0349 19.3334 18.6667V9.49999C19.3334 9.1318 19.0349 8.83333 18.6667 8.83333H5.33341ZM2.66675 9.49999C2.66675 8.02724 3.86066 6.83333 5.33341 6.83333H18.6667C20.1395 6.83333 21.3334 8.02724 21.3334 9.49999V18.6667C21.3334 20.1394 20.1395 21.3333 18.6667 21.3333H5.33341C3.86066 21.3333 2.66675 20.1394 2.66675 18.6667V9.49999Z"/>
    <path d="M11.2801 11.4H7.08008V12.784H8.46408V17H9.89608V12.784H11.2801V11.4Z"/>
    <path d="M13.1831 17H14.8871L16.6951 11.4H15.1271L14.0311 15.256L12.9431 11.4H11.3751L13.1831 17Z"/>
  </symbol>
  <symbol viewBox="0 0 24 24" id="graph6">
    <path fill-rule="evenodd" clip-rule="evenodd" d="M2.99996 10H11V19H2.99996V10ZM4.99996 12V17H8.99996V12H4.99996Z"/>
    <path d="M7.99996 8H5.99996V10H7.99996V8Z"/>
    <path d="M7.99996 19H5.99996V21H7.99996V19Z"/>
    <path fill-rule="evenodd" clip-rule="evenodd" d="M13 12H21V20H13V12ZM15 14V18H19V14H15Z"/>
    <path d="M18 10H16V12H18V10Z"/>
    <path d="M18 20H16V22H18V20Z"/>
    <path fill-rule="evenodd" clip-rule="evenodd" d="M3.7473 7.66445C3.7473 7.66445 3.74761 7.66409 2.99996 7C2.25231 6.33591 2.25269 6.33549 2.25269 6.33549L2.25418 6.33381L2.25703 6.33061L2.26569 6.321L2.29456 6.28935C2.31886 6.26292 2.35324 6.22603 2.39708 6.18016C2.48468 6.08851 2.61046 5.9606 2.76951 5.80851C3.0865 5.50539 3.54138 5.10071 4.09457 4.69419C5.1679 3.90543 6.75815 3 8.49996 3C10.3562 3 11.4937 4.05238 12.3068 4.91846C12.4418 5.06227 12.563 5.19509 12.676 5.31907C12.9293 5.59668 13.1421 5.83003 13.3799 6.04347C13.6994 6.33025 13.9523 6.47066 14.1961 6.51942C16.2856 6.93733 17.7128 6.12299 18.6679 5.16789C19.1544 4.6813 19.5112 4.16152 19.7466 3.75991C19.8635 3.56055 19.9482 3.39427 20.0021 3.28144C20.0291 3.22513 20.0482 3.18247 20.0597 3.15606L20.0713 3.12906L20.0718 3.12782C20.0718 3.12782 20.0715 3.12861 21 3.5C21.9284 3.87139 21.9281 3.87229 21.9281 3.87229L21.9277 3.87331L21.9267 3.8757L21.9242 3.88185L21.9169 3.89956C21.911 3.91373 21.903 3.93258 21.8929 3.95576C21.8726 4.0021 21.8439 4.06589 21.8064 4.14435C21.7315 4.30104 21.6208 4.51757 21.472 4.77134C21.1762 5.27598 20.7205 5.9437 20.0821 6.58211C18.7872 7.87701 16.7143 9.06267 13.8038 8.48058C13.067 8.33322 12.4965 7.93808 12.0439 7.53184C11.727 7.24735 11.4095 6.8994 11.1289 6.59174C11.0304 6.48383 10.9365 6.38088 10.8487 6.28737C10.1109 5.5015 9.47904 5 8.49996 5C7.4065 5 6.24675 5.59457 5.2789 6.30581C4.8115 6.64929 4.42299 6.99461 4.15174 7.25399C4.01667 7.38315 3.91212 7.48962 3.84292 7.56203C3.80835 7.59819 3.78271 7.62575 3.7666 7.64326L3.7497 7.66179L3.7473 7.66445Z"/>
  </symbol>
  <symbol viewBox="0 0 24 24" id="cloud">
    <path d="M16.8485 8.66543H16.7475C15.8886 6.49422 13.7792 5.03149 11.3939 5.03149C8.30739 5.03149 5.78024 7.47289 5.6423 10.526C3.58606 10.8182 2 12.5904 2 14.726C2 17.0653 3.90315 18.9685 6.24242 18.9685H16.8485C19.689 18.9685 22 16.6575 22 13.8169C22 10.9764 19.689 8.66543 16.8485 8.66543ZM16.8485 17.1503H6.24242C4.9057 17.1503 3.81818 16.0628 3.81818 14.726C3.81818 13.3893 4.9057 12.3018 6.24242 12.3018H6.54545C7.04752 12.3018 7.45455 11.8948 7.45455 11.3927V10.789C7.45455 8.61683 9.22176 6.84962 11.3939 6.84962C13.1918 6.84962 14.7604 8.06349 15.2087 9.80155C15.3122 10.2031 15.6744 10.4836 16.089 10.4836H16.8485C18.6865 10.4836 20.1818 11.9789 20.1818 13.8169C20.1818 15.655 18.6865 17.1503 16.8485 17.1503Z"/>
  </symbol>
  <symbol viewBox="0 0 24 24" id="brain">
    <path d="M21.5874 10.4485C21.5874 9.15815 20.9375 7.97342 19.8859 7.27285C19.5812 5.58296 18.0998 4.29691 16.3245 4.29691C16.2731 4.29691 16.2195 4.29836 16.1674 4.30053C15.4893 3.48345 14.4862 3 13.4006 3C12.6263 3 11.8765 3.25403 11.2584 3.71359C10.9175 3.62023 10.5702 3.57319 10.2192 3.57319C8.79922 3.57319 7.49217 4.32948 6.76411 5.51783C4.65518 5.71613 3.00003 7.49576 3.00003 9.65462C3.00003 10.8828 3.54934 12.0465 4.48583 12.8332C5.03514 14.1489 6.30527 15.0094 7.75127 15.0094C7.93726 15.0094 8.12543 14.9942 8.31287 14.9617C8.78691 15.2895 9.35069 15.469 9.93256 15.469C10.0693 15.469 10.2061 15.4589 10.34 15.4408C10.8119 16.3722 11.6586 17.2161 12.4866 18.0404C13.2552 18.8054 13.6055 19.1712 14.2692 19.9038L15.2599 20.7579L16.2369 19.4926C17.0909 18.1921 16.9505 17.7574 16.504 16.6479C16.5401 16.6328 16.5749 16.6154 16.6089 16.598C16.8651 16.6697 17.1278 16.7058 17.3941 16.7058C19.0507 16.7058 20.3983 15.3583 20.3983 13.7017C20.3983 13.5461 20.3853 13.3912 20.36 13.237C21.1322 12.5249 21.5874 11.5168 21.5874 10.4485ZM19.0913 12.8267C19.2273 13.0894 19.312 13.3847 19.312 13.7024C19.312 14.7627 18.4522 15.621 17.3934 15.621C17.0634 15.621 16.758 15.5305 16.4873 15.3836C16.1537 15.6644 15.7289 15.8403 15.2599 15.8403C15.0638 15.8403 14.8799 15.8019 14.7019 15.7484C14.7019 15.7484 16.3432 17.395 15.0665 19.3403C13.61 18.2134 12.2586 16.6574 11.3771 15.0753C11.7498 14.8379 12.0704 14.5209 12.3983 14.1858C13.4462 13.1126 14.5296 12.0024 17.9695 13.1755L18.3198 12.1478C14.2336 10.7554 12.724 12.2984 11.6217 13.4274C11.3967 13.6575 11.1889 13.8645 10.9812 14.0288C10.6867 14.2466 10.3284 14.3841 9.93329 14.3841C9.39629 14.3841 8.9208 14.1424 8.59295 13.7668C8.32952 13.8638 8.04799 13.9246 7.75127 13.9246C6.67581 13.9246 5.77623 13.2291 5.43825 12.268L5.44621 12.2665C5.28627 11.4791 5.49832 10.8271 6.0592 10.3827C6.90306 9.7118 8.2955 9.66765 9.60327 10.2669L10.0556 9.27974C8.37729 8.51404 6.5441 8.61174 5.38397 9.53304C4.89039 9.92457 4.56544 10.4391 4.41274 11.0232C4.20575 10.6114 4.08561 10.1482 4.08561 9.65462C4.08561 7.95894 5.45996 6.5846 7.15637 6.5846C7.2519 6.5846 7.34092 6.60414 7.43428 6.61282C7.85259 5.47513 8.93672 4.65877 10.2199 4.65877C10.6809 4.65877 11.1115 4.7724 11.5016 4.95912C11.9655 4.4279 12.64 4.08558 13.4006 4.08558C13.9999 4.08558 14.5456 4.29836 14.9776 4.64792C14.4609 4.94971 14.0701 5.34848 13.8341 5.85653C13.8161 5.89489 13.8066 5.93469 13.7907 5.97305L13.7893 5.97233C13.5063 6.50571 12.9266 6.94211 12.3426 7.05791C12.0574 7.11436 11.642 7.11943 11.283 6.8227L10.5904 7.65788C10.9993 7.9973 11.5023 8.17389 12.0429 8.17389C12.2101 8.17389 12.3816 8.15724 12.5539 8.1225C12.9252 8.04868 13.2805 7.89887 13.6055 7.69478C13.6807 8.2383 13.8472 8.72392 13.9876 9.05755L14.9878 8.63418C14.8083 8.21225 14.4334 7.14041 14.8184 6.3132C14.9878 5.94772 15.304 5.66474 15.7484 5.46138C15.9337 5.41506 16.1255 5.38105 16.3252 5.38105C17.7249 5.38105 18.8582 6.51512 18.8582 7.91407C18.8582 7.92348 18.8553 7.93217 18.8553 7.94157C19.8237 8.36206 20.5018 9.32461 20.5018 10.4471C20.5018 11.4762 19.9279 12.3599 19.0913 12.8267Z" stroke="black" stroke-width="0.5"/>
  </symbol>
  <symbol viewBox="0 0 24 24" id="graph7">
    <path fill-rule="evenodd" clip-rule="evenodd" d="M5 3H3V20C3 20.5523 3.44772 21 4 21H21V19L5 19V3Z"/>
    <path fill-rule="evenodd" clip-rule="evenodd" d="M18.7792 13.3225C18.2568 13.9359 17.4839 14.5345 16.4655 14.4994C15.8382 14.4778 15.3095 14.2013 14.895 13.8922C14.4804 13.5831 14.1063 13.1859 13.7781 12.8049C13.5767 12.5711 13.3623 12.3065 13.1604 12.0573C13.0441 11.9138 12.932 11.7754 12.8289 11.651C12.5229 11.2816 12.2511 10.9777 11.994 10.7532L13.3096 9.24683C13.694 9.5826 14.0503 9.99035 14.3689 10.3749C14.5045 10.5385 14.629 10.6924 14.7492 10.841C14.9326 11.0677 15.1059 11.2819 15.2934 11.4996C15.5932 11.8476 15.8537 12.1123 16.0905 12.2888C16.3273 12.4654 16.4668 12.4983 16.5344 12.5006C16.667 12.5052 16.9071 12.4361 17.2567 12.0257C17.5971 11.626 17.9156 11.0425 18.1925 10.3894C18.4647 9.74761 18.6734 9.09495 18.8149 8.59717C18.8852 8.34983 18.9379 8.1443 18.9726 8.0021C18.99 7.93108 19.0028 7.87607 19.0111 7.83977L19.0201 7.79978L19.0221 7.791L19.0224 7.78972C19.0224 7.78972 19.0223 7.79003 20 8C20.9777 8.20997 20.9776 8.21041 20.9776 8.21041L20.9772 8.21251L20.9762 8.21709L20.9728 8.23222L20.9608 8.2855C20.9505 8.3309 20.9353 8.39568 20.9154 8.47706C20.8757 8.63967 20.8167 8.86941 20.7387 9.1439C20.5836 9.68977 20.349 10.427 20.0338 11.1702C19.7235 11.9019 19.3108 12.6984 18.7792 13.3225ZM8.9805 15.6965C8.9805 15.6965 8.98055 15.6963 8 15.5C7.01945 15.3037 7.01952 15.3034 7.01952 15.3034L7.02047 15.2987L7.02266 15.2879L7.03056 15.2499C7.03738 15.2173 7.04733 15.1706 7.06037 15.1114C7.08644 14.9929 7.12493 14.8241 7.17559 14.6174C7.27666 14.2051 7.42738 13.6375 7.62604 13.0178C8.00521 11.835 8.61996 10.2583 9.51494 9.31264L10.9676 10.6874C10.4164 11.2698 9.9105 12.4431 9.53058 13.6283C9.34971 14.1926 9.21126 14.7134 9.11807 15.0936C9.07159 15.2832 9.03667 15.4366 9.0136 15.5413C9.00208 15.5937 8.99354 15.6338 8.98801 15.6602L8.98199 15.6892L8.9805 15.6965Z"/>
    <path fill-rule="evenodd" clip-rule="evenodd" d="M11 10C11.5523 10 12 9.55228 12 9C12 8.44772 11.5523 8 11 8C10.4477 8 10 8.44772 10 9C10 9.55228 10.4477 10 11 10ZM11 12C12.6569 12 14 10.6569 14 9C14 7.34315 12.6569 6 11 6C9.34315 6 8 7.34315 8 9C8 10.6569 9.34315 12 11 12Z"/>
  </symbol>
  <symbol viewBox="0 0 24 24" id="graph8">
    <path fill-rule="evenodd" clip-rule="evenodd" d="M20.7864 6.61785L14.6505 14.4271L11.5159 11.8149L8.15856 14.7526L6.84155 13.2474L11.4842 9.18512L14.3496 11.5729L19.2137 5.3822L20.7864 6.61785ZM5 3H3V19V20C3 20.5523 3.44772 21 4 21H21V19L5 19V3Z"/>
  </symbol>
   <symbol viewBox="0 0 24 24" id="play">
    <path fill-rule="evenodd" clip-rule="evenodd" d="M12 5C8.13401 5 5 8.13401 5 12C5 15.866 8.13401 19 12 19C15.866 19 19 15.866 19 12C19 8.13401 15.866 5 12 5ZM3 12C3 7.02944 7.02944 3 12 3C16.9706 3 21 7.02944 21 12C21 16.9706 16.9706 21 12 21C7.02944 21 3 16.9706 3 12Z"/>
    <path d="M16 12L10 15.4646V8.4646L16 12Z"/>
  </symbol>
</svg>
