<svg xmlns="http://www.w3.org/2000/svg">
  <symbol viewBox="0 0 112 21" id="trustpilot_rating">
    <path d="M10.5 14.1533L13.6937 13.3439L15.0281 17.4564L10.5 14.1533ZM17.85 8.8377H12.2281L10.5 3.54395L8.77184 8.8377H3.14996L7.69996 12.1189L5.97184 17.4127L10.5218 14.1314L13.3218 12.1189L17.85 8.8377Z" fill="white"></path>
    <path d="M33.25 14.1533L36.4437 13.3439L37.7781 17.4564L33.25 14.1533ZM40.6 8.8377H34.9781L33.25 3.54395L31.5218 8.8377H25.9L30.45 12.1189L28.7218 17.4127L33.2718 14.1314L36.0718 12.1189L40.6 8.8377Z" fill="white"></path>
    <path d="M56 14.1533L59.1937 13.3439L60.5281 17.4564L56 14.1533ZM63.35 8.8377H57.7281L56 3.54395L54.2718 8.8377H48.65L53.2 12.1189L51.4718 17.4127L56.0218 14.1314L58.8218 12.1189L63.35 8.8377Z" fill="white"></path>
    <path d="M78.75 14.1533L81.9437 13.3439L83.2781 17.4564L78.75 14.1533ZM86.1 8.8377H80.4781L78.75 3.54395L77.0218 8.8377H71.4L75.95 12.1189L74.2218 17.4127L78.7718 14.1314L81.5718 12.1189L86.1 8.8377Z" fill="white"></path>
    <path d="M101.5 14.1533L104.694 13.3439L106.028 17.4564L101.5 14.1533ZM108.85 8.8377H103.228L101.5 3.54395L99.7718 8.8377H94.15L98.7 12.1189L96.9718 17.4127L101.522 14.1314L104.322 12.1189L108.85 8.8377Z" fill="white"></path>
  </symbol>

  <symbol viewBox="0 0 113 24" id="trustpilot_logo">
    <path d="M29.5556 6L40.843 6L40.843 8.00491L36.3987 8.00491L36.3987 19.3069L33.9627 19.3069L33.9627 8.00491L29.537 8.00491L29.5556 6ZM40.3596 9.67271L42.4422 9.67271L42.4422 11.5357L42.4794 11.5357C42.5538 11.2695 42.684 11.0211 42.8699 10.7728C43.0559 10.5244 43.279 10.2937 43.558 10.0985C43.8183 9.88562 44.1158 9.72594 44.4505 9.60174C44.7667 9.47754 45.1014 9.40657 45.4361 9.40657C45.6964 9.40657 45.8824 9.42432 45.9754 9.42432C46.0683 9.44206 46.1799 9.4598 46.2729 9.4598L46.2729 11.5002C46.1241 11.4647 45.9568 11.447 45.7894 11.4292C45.6221 11.4115 45.4733 11.3937 45.3059 11.3937C44.934 11.3937 44.5807 11.4647 44.246 11.6067C43.9113 11.7486 43.6324 11.9615 43.372 12.2276C43.1303 12.5115 42.9257 12.8486 42.777 13.2567C42.6282 13.6648 42.5538 14.1438 42.5538 14.6761L42.5538 19.2537L40.3224 19.2537L40.3596 9.67271ZM56.5004 19.3069L54.3061 19.3069L54.3061 17.9585L54.2689 17.9585C53.99 18.4553 53.5809 18.8279 53.0416 19.1295C52.5023 19.4311 51.9445 19.5731 51.3866 19.5731C50.0664 19.5731 49.0994 19.2714 48.5043 18.6327C47.9093 18.0117 47.6118 17.0536 47.6118 15.7939L47.6118 9.67271L49.8432 9.67271L49.8432 15.581C49.8432 16.4326 50.0106 17.0359 50.3639 17.373C50.6986 17.7278 51.1821 17.9053 51.7957 17.9053C52.2606 17.9053 52.6511 17.8343 52.9672 17.6924C53.2834 17.5504 53.5437 17.373 53.7296 17.1423C53.9342 16.9117 54.0644 16.6278 54.1573 16.3084C54.2503 15.9891 54.2875 15.6342 54.2875 15.2616L54.2875 9.67271L56.519 9.67271L56.5004 19.3069ZM60.2938 16.2197C60.3682 16.8407 60.6099 17.2665 61.0376 17.5327C61.4653 17.7811 61.986 17.9053 62.581 17.9053C62.7856 17.9053 63.0273 17.8875 63.2877 17.852C63.548 17.8166 63.8083 17.7633 64.0315 17.6746C64.2732 17.5859 64.4592 17.4617 64.608 17.2843C64.7567 17.1069 64.8311 16.8939 64.8125 16.6278C64.7939 16.3617 64.7009 16.131 64.4964 15.9536C64.2918 15.7762 64.0501 15.652 63.7526 15.5278C63.455 15.4213 63.1017 15.3326 62.7112 15.2616C62.3207 15.1907 61.9302 15.1019 61.5211 15.0132C61.112 14.9245 60.7029 14.8181 60.3124 14.6939C59.9219 14.5697 59.5872 14.41 59.2711 14.1793C58.9735 13.9664 58.7132 13.7003 58.5459 13.3632C58.3599 13.0261 58.2669 12.6357 58.2669 12.1389C58.2669 11.6067 58.3971 11.1808 58.676 10.826C58.9364 10.4711 59.2897 10.1872 59.6988 9.97434C60.1079 9.76143 60.5727 9.60174 61.0748 9.51303C61.5769 9.42432 62.0604 9.38883 62.5067 9.38883C63.0273 9.38883 63.5294 9.44206 63.9943 9.54852C64.4592 9.65497 64.9055 9.81466 65.2774 10.0631C65.6679 10.2937 65.984 10.6131 66.2257 10.9857C66.4861 11.3583 66.6348 11.8196 66.7092 12.3518L64.3848 12.3518C64.2732 11.8373 64.0315 11.5002 63.6596 11.3228C63.2691 11.1453 62.8414 11.0566 62.3393 11.0566C62.1905 11.0566 61.986 11.0744 61.7814 11.0921C61.5583 11.1276 61.3724 11.1631 61.1678 11.2341C60.9818 11.305 60.8145 11.4115 60.6843 11.5357C60.5542 11.6599 60.4798 11.8373 60.4798 12.0502C60.4798 12.3164 60.5727 12.5115 60.7587 12.6712C60.9447 12.8309 61.1864 12.9551 61.5025 13.0793C61.8 13.1857 62.1534 13.2745 62.5439 13.3454C62.9344 13.4164 63.3435 13.5051 63.7526 13.5938C64.1617 13.6825 64.5522 13.789 64.9427 13.9132C65.3332 14.0374 65.6865 14.1971 65.984 14.4277C66.2815 14.6406 66.5419 14.9068 66.7278 15.2261C66.9138 15.5455 67.0068 15.9536 67.0068 16.4149C67.0068 16.9827 66.8766 17.4617 66.5977 17.8698C66.3187 18.2601 65.9654 18.5972 65.5377 18.8456C65.11 19.094 64.6079 19.2714 64.0873 19.3956C63.548 19.5021 63.0273 19.5731 62.5067 19.5731C61.8744 19.5731 61.2794 19.5021 60.7401 19.3602C60.2008 19.2182 59.7174 19.0053 59.3269 18.7392C58.9364 18.4553 58.6202 18.1182 58.3971 17.6924C58.1739 17.2843 58.0438 16.7875 58.0252 16.202L60.2752 16.202L60.2752 16.2197L60.2938 16.2197ZM67.639 9.63723L69.3312 9.67271L69.3312 6.76293L71.5626 6.76293L71.5626 9.65497L73.5709 9.65497L73.5709 11.2341L71.5626 11.2341L71.5626 16.3794C71.5626 16.6101 71.5812 16.7875 71.5998 16.9649C71.6184 17.1246 71.6742 17.2665 71.73 17.373C71.8044 17.4794 71.9159 17.5682 72.0461 17.6214C72.1949 17.6746 72.3808 17.7101 72.6412 17.7101C72.7899 17.7101 72.9573 17.7101 73.106 17.6924C73.2548 17.6746 73.4222 17.6569 73.5709 17.6214L73.5709 19.2714C73.3292 19.3069 73.0874 19.3247 72.8457 19.3424C72.604 19.3779 72.3808 19.3779 72.1205 19.3779C71.5254 19.3779 71.0605 19.3247 70.7072 19.2182C70.3539 19.1118 70.075 18.9521 69.8704 18.7569C69.6659 18.544 69.5357 18.2956 69.4613 17.994C69.387 17.6924 69.3498 17.3198 69.3312 16.9294L69.3312 11.2518L67.639 11.2518L67.639 9.63723ZM75.1329 9.67271L77.2342 9.67271L77.2342 10.9857L77.2714 10.9857C77.5875 10.4179 78.0152 10.0276 78.5731 9.77917C79.1309 9.53077 79.726 9.40658 80.3954 9.40658C81.195 9.40658 81.8831 9.53078 82.4781 9.81466C83.0732 10.0808 83.5566 10.4356 83.9472 10.9147C84.3377 11.376 84.6352 11.926 84.8211 12.547C85.0071 13.168 85.1187 13.8422 85.1187 14.5342C85.1187 15.1907 85.0257 15.8116 84.8583 16.4149C84.6724 17.0181 84.412 17.5682 84.0587 18.0295C83.7054 18.4908 83.2591 18.8634 82.7013 19.1472C82.1434 19.4311 81.5112 19.5731 80.7673 19.5731C80.4512 19.5731 80.1165 19.5376 79.8004 19.4844C79.4843 19.4311 79.1681 19.3424 78.8706 19.2182C78.5731 19.094 78.2942 18.9343 78.0524 18.7392C77.7921 18.544 77.5875 18.3134 77.4202 18.065L77.383 18.065L77.383 22.8732L75.1515 22.8732L75.1329 9.67271ZM82.9244 14.4987C82.9244 14.0729 82.8686 13.6471 82.7384 13.239C82.6269 12.8309 82.4409 12.476 82.1992 12.1567C81.9574 11.8373 81.6599 11.5889 81.3252 11.3937C80.9719 11.1986 80.5628 11.1099 80.1165 11.1099C79.1867 11.1099 78.4801 11.4115 77.9966 12.0325C77.5317 12.6535 77.29 13.4874 77.29 14.5164C77.29 15.0132 77.3458 15.4568 77.476 15.8649C77.6061 16.273 77.7735 16.6278 78.0338 16.9294C78.2756 17.231 78.5731 17.4617 78.9264 17.6391C79.2797 17.8166 79.6702 17.9053 80.1351 17.9053C80.6558 17.9053 81.0649 17.7988 81.4182 17.6036C81.7715 17.4085 82.0504 17.1423 82.2922 16.8407C82.5153 16.5213 82.6827 16.1665 82.7756 15.7584C82.8686 15.3326 82.9244 14.9245 82.9244 14.4987ZM86.848 6L89.0795 6L89.0795 8.00491L86.848 8.00491L86.848 6ZM86.848 9.67271L89.0795 9.67271L89.0795 19.3069L86.848 19.3069L86.848 9.67271ZM91.0692 6.00001L93.3006 6.00001L93.3006 19.3069L91.0692 19.3069L91.0692 6.00001ZM100.107 19.5731C99.3069 19.5731 98.5817 19.4489 97.9495 19.1827C97.3172 18.9166 96.7966 18.5795 96.3503 18.1359C95.9226 17.6924 95.5879 17.1423 95.3647 16.5214C95.1416 15.9004 95.0114 15.2084 95.0114 14.481C95.0114 13.7535 95.123 13.0793 95.3647 12.4583C95.5879 11.8373 95.9226 11.305 96.3503 10.8437C96.778 10.4002 97.3172 10.0453 97.9495 9.79692C98.5817 9.54852 99.3069 9.40658 100.107 9.40658C100.906 9.40658 101.631 9.53078 102.264 9.79692C102.896 10.0453 103.417 10.4002 103.863 10.8437C104.29 11.2873 104.625 11.8373 104.848 12.4583C105.072 13.0793 105.202 13.7535 105.202 14.481C105.202 15.2261 105.09 15.9004 104.848 16.5214C104.607 17.1423 104.29 17.6746 103.863 18.1359C103.435 18.5795 102.896 18.9343 102.264 19.1827C101.631 19.4311 100.925 19.5731 100.107 19.5731ZM100.107 17.8875C100.59 17.8875 101.036 17.7811 101.39 17.5859C101.762 17.3907 102.04 17.1246 102.282 16.8052C102.524 16.4859 102.691 16.1133 102.803 15.7229C102.914 15.3149 102.97 14.9068 102.97 14.481C102.97 14.0729 102.914 13.6648 102.803 13.2567C102.691 12.8486 102.524 12.4938 102.282 12.1744C102.04 11.8551 101.743 11.6067 101.39 11.4115C101.018 11.2163 100.59 11.1099 100.107 11.1099C99.6231 11.1099 99.1768 11.2163 98.8235 11.4115C98.4516 11.6067 98.1726 11.8728 97.9309 12.1744C97.6891 12.4938 97.5218 12.8486 97.4102 13.2567C97.2986 13.6648 97.2429 14.0729 97.2429 14.481C97.2429 14.9068 97.2986 15.3149 97.4102 15.7229C97.5218 16.131 97.6891 16.4859 97.9309 16.8052C98.1726 17.1246 98.4701 17.3907 98.8235 17.5859C99.1954 17.7988 99.6231 17.8875 100.107 17.8875ZM105.871 9.63723L107.563 9.67272L107.563 6.76294L109.795 6.76294L109.795 9.65497L111.803 9.65497L111.803 11.2341L109.795 11.2341L109.795 16.3794C109.795 16.6101 109.813 16.7875 109.832 16.9649C109.851 17.1246 109.906 17.2665 109.962 17.373C110.036 17.4794 110.148 17.5682 110.278 17.6214C110.427 17.6746 110.613 17.7101 110.873 17.7101C111.022 17.7101 111.189 17.7101 111.338 17.6924C111.487 17.6746 111.654 17.6569 111.803 17.6214L111.803 19.2715C111.561 19.3069 111.32 19.3247 111.078 19.3424C110.836 19.3779 110.613 19.3779 110.353 19.3779C109.758 19.3779 109.293 19.3247 108.939 19.2182C108.586 19.1118 108.307 18.9521 108.103 18.7569C107.898 18.544 107.768 18.2956 107.693 17.994C107.619 17.6924 107.582 17.3198 107.563 16.9294L107.563 11.2518L105.871 11.2518L105.871 9.63723Z" fill="currentColor"/>
    <path d="M27.463 9.17131L17.1619 9.17131L13.9909 1.17941e-06L10.8011 9.1713L0.499999 9.15373L8.83094 14.8287L5.64116 24L13.9721 18.325L22.303 24L19.132 14.8287L27.463 9.17131Z" fill="#00B67A"/>
    <path d="M19.6718 17.0683L19.1666 15L13.8701 18.5054L19.6718 17.0683Z" fill="#005128"/>
  </symbol>
</svg>
